<?xml version="1.0" encoding="UTF-8" standalone="no"?>
<svg
   xmlns:dc="http://purl.org/dc/elements/1.1/"
   xmlns:cc="http://creativecommons.org/ns#"
   xmlns:rdf="http://www.w3.org/1999/02/22-rdf-syntax-ns#"
   xmlns:svg="http://www.w3.org/2000/svg"
   xmlns="http://www.w3.org/2000/svg"
   xmlns:sodipodi="http://sodipodi.sourceforge.net/DTD/sodipodi-0.dtd"
   xmlns:inkscape="http://www.inkscape.org/namespaces/inkscape"
   inkscape:version="1.0beta2 (2b71d25, 2019-12-03)"
   sodipodi:docname="khepri_logo.svg"
   viewBox="0 0 307.82324 147.81406"
   height="147.81406"
   width="307.82324"
   id="svg62"
   version="1.1">
  <metadata
     id="metadata68">
    <rdf:RDF>
      <cc:Work
         rdf:about="">
        <dc:format>image/svg+xml</dc:format>
        <dc:type
           rdf:resource="http://purl.org/dc/dcmitype/StillImage" />
        <dc:title></dc:title>
        <dc:title></dc:title>
      </cc:Work>
    </rdf:RDF>
  </metadata>
  <defs
     id="defs66">
    <inkscape:path-effect
       live_update="true"
       perimetral="false"
       vertical_mirror="false"
       horizontal_mirror="false"
       lpeversion="1"
       is_visible="true"
       id="path-effect1092"
       gridpoint32x33x34x35="213.19758,137.53888"
       gridpoint29x31="281.57613,137.53888"
       gridpoint28x30="144.81902,137.53888"
       gridpoint25x27="349.95469,137.53888"
       gridpoint24x26="76.440467,137.53888"
       gridpoint22x23="213.19758,165.84239"
       gridpoint20x21="213.19758,109.23537"
       gridpoint19="281.57613,165.84239"
       gridpoint18="144.81902,165.84239"
       gridpoint17="281.57613,109.23537"
       gridpoint16="144.81902,109.23537"
       gridpoint15="349.95469,165.84239"
       gridpoint14="76.440467,165.84239"
       gridpoint13="349.95469,109.23537"
       gridpoint12="76.440467,109.23537"
       gridpoint10x11="213.19758,194.14591"
       gridpoint8x9="213.19758,80.931852"
       gridpoint7="281.57613,194.14591"
       gridpoint6="144.81902,194.14591"
       gridpoint5="281.57613,80.931852"
       gridpoint4="144.81902,80.931852"
       gridpoint3="349.95469,194.14591"
       gridpoint2="76.440467,194.14591"
       gridpoint1="349.95469,80.931852"
       gridpoint0="76.440467,80.931852"
       effect="lattice2" />
  </defs>
  <sodipodi:namedview
     inkscape:current-layer="layer1"
     inkscape:window-maximized="0"
     inkscape:window-y="84"
     inkscape:window-x="99"
     inkscape:cy="83.748295"
     inkscape:cx="145.45428"
     inkscape:zoom="3.2516128"
     inkscape:snap-page="true"
     fit-margin-bottom="17.3"
     fit-margin-right="17.3"
     fit-margin-left="17.3"
     lock-margins="true"
     fit-margin-top="17.3"
     borderlayer="false"
     showgrid="false"
     id="namedview64"
     inkscape:window-height="898"
     inkscape:window-width="1526"
     inkscape:pageshadow="2"
     inkscape:pageopacity="0"
     guidetolerance="10"
     gridtolerance="10"
     objecttolerance="10"
     borderopacity="1"
     inkscape:document-rotation="0"
     bordercolor="#666666"
     pagecolor="#ffffff">
    <sodipodi:guide
       id="guide928"
       orientation="113.21405,0"
       position="290.52323,95.91405" />
    <sodipodi:guide
       id="guide932"
       orientation="-113.21405,0"
       position="17.3,-17.3" />
    <sodipodi:guide
       id="guide934"
       orientation="0,273.22324"
       position="17.3,130.51406" />
    <sodipodi:guide
       id="guide936"
       orientation="113.21405,0"
       position="290.52324,130.51406" />
    <sodipodi:guide
       id="guide938"
       orientation="0,-273.22324"
       position="290.52324,17.300006" />
    <sodipodi:guide
       id="guide940"
       orientation="-113.21405,0"
       position="17.3,17.300006" />
  </sodipodi:namedview>
  <g
     style="display:inline"
     inkscape:label="Khepri 1"
     id="layer2"
     inkscape:groupmode="layer">
    <rect
       y="0"
       x="0"
       height="147.81406"
       width="307.82324"
       id="rect950"
       style="fill:#f5b70f;fill-opacity:1" />
  </g>
  <g
     transform="translate(-59.658838,-63.631852)"
     style="display:inline"
     inkscape:label="Khepri"
     id="layer1"
     inkscape:groupmode="layer">
    <path
       inkscape:original-d="m 135.86312,193.44842 c -6.80027,-2.23221 -12.23496,-6.56892 -15.31633,-12.22195 -6.37032,-11.6869 -1.77353,-26.50717 9.95516,-32.09581 3.24391,-1.54571 4.60755,-1.7874 10.08448,-1.7874 5.47693,0 6.85745,0.24169 10.2093,1.7874 9.69781,4.47212 15.7231,15.30622 14.09792,25.34954 -1.84191,11.38264 -10.36668,19.10698 -21.67036,19.63564 -2.70029,0.12629 -5.79789,-0.1546 -7.36017,-0.66742 z m 15.14793,-4.73278 c 9.3085,-4.63338 13.25344,-16.58726 8.70286,-26.37115 -1.97406,-4.24431 -7.75332,-9.47345 -12.08042,-10.9305 -4.06223,-1.36787 -9.84313,-1.36787 -13.80982,0 -4.23356,1.45989 -9.63921,6.68575 -11.3235,10.94688 -1.6254,4.11216 -1.57222,10.94202 0.11889,15.26994 4.37752,11.20295 17.70285,16.40545 28.39199,11.08483 z m -15.07598,-0.0842 c -4.28749,-1.30598 -9.54647,-6.02477 -11.62976,-10.43521 -4.42844,-9.37522 -0.99588,-19.92098 7.96799,-24.47983 9.83125,-4.99998 21.66292,-0.71013 26.55155,9.62688 0.76196,1.61118 1.33101,4.38184 1.43767,7 0.53624,13.16224 -11.48571,22.19974 -24.32745,18.28816 z m 164.53636,-44.58125 -0.59506,-17.04025 h 2.2 c 1.21,0 2.53925,0.3278 2.95387,0.72843 0.54518,0.52679 1.12358,0.52679 2.08951,0 3.76989,-2.05601 10.76778,0.53311 13.17173,4.87335 3.5208,6.35668 0.59617,13.80566 -6.15995,15.68928 -2.40864,0.67154 -5.93559,0.29126 -6.58969,-0.7105 -1.12643,-1.72514 -1.58204,0.1266 -1.53844,6.25278 l 0.0486,6.83333 -2.49278,0.20691 -2.49277,0.20691 z m 13.23855,-1.34892 c 2.0922,-1.10182 2.6368,-2.22061 2.53266,-5.20289 -0.16767,-4.80146 -6.6013,-7.12662 -9.40362,-3.39853 -2.25156,2.99537 -1.39353,6.90597 1.92459,8.77155 1.81631,1.0212 2.74483,0.98926 4.94637,-0.17013 z m -193.84497,7.10743 c -3.58166,-5.25436 -4.62314,-9.65612 -3.40835,-14.40538 0.51182,-2.00092 1.71184,-4.60672 2.66673,-5.79067 l 1.73615,-2.15263 0.46551,1.60829 c 0.28115,0.9713 0.014,2.58796 -0.67451,4.08174 -2.17987,4.72947 -0.92078,10.69798 3.51956,16.68396 0.70896,0.95575 0.63589,1.38765 -0.41938,2.47887 -1.27445,1.31785 -1.28506,1.31101 -3.88571,-2.50418 z m 38.01338,2.65944 c -0.63577,-0.67642 -1.16171,-1.39488 -1.16875,-1.59659 -0.007,-0.2017 0.9763,-2.11043 2.18521,-4.24162 2.60003,-4.58359 2.82525,-9.35545 0.63619,-13.47988 -0.76714,-1.44538 -1.17079,-3.11803 -0.97115,-4.02427 l 0.34163,-1.55082 1.51995,1.55992 c 4.00544,4.1108 5.16239,12.26531 2.51559,17.73056 -0.83758,1.72948 -2.05834,3.97431 -2.71281,4.98852 -1.14795,1.779 -1.23068,1.80066 -2.34586,0.61418 z m 124.02179,-4.9582 c -4.0397,-2.00184 -6.39782,-6.10941 -6.15216,-10.71632 0.4136,-7.75628 8.66676,-12.33684 14.91567,-8.2783 2.47562,1.60786 5.49068,6.45559 5.57846,8.96922 0.0525,1.50486 -0.0547,1.5254 -7.96385,1.5254 h -8.01712 l 1.12004,2.0289 c 1.66633,3.01849 3.91984,3.8048 6.84242,2.38752 2.30887,-1.11967 2.4041,-1.11172 3.99299,0.33355 1.46705,1.33445 1.53189,1.59071 0.65693,2.59633 -0.94318,1.08403 -5.08272,2.6537 -6.99835,2.6537 -0.52143,0 -2.31019,-0.675 -3.97503,-1.5 z m 8.23993,-12.9475 c -0.009,-0.24613 -0.53128,-0.99613 -1.16152,-1.66667 -1.68201,-1.78955 -5.05605,-1.57012 -6.88105,0.44751 l -1.50755,1.66666 h 4.78288 c 2.63058,0 4.77584,-0.20138 4.76724,-0.4475 z m -73.42246,-2.5525 -0.57038,-16.33333 h 2.97498 2.97499 l 0.40282,6.0462 0.40282,6.0462 6.22808,-6.0462 6.22808,-6.0462 4.22859,0.0325 4.22858,0.0325 -5.64946,5.52212 -5.64947,5.52212 5.69446,7.61199 c 3.13196,4.18659 6.78092,9.03699 8.10882,10.77865 l 2.41434,3.16667 -3.89103,-0.0264 -3.89103,-0.0264 -6.29835,-8.54355 -6.29835,-8.54356 -2.75243,2.31693 -2.75242,2.31693 0.21836,6.25302 0.21836,6.25303 h -3 -3 l -0.57037,-16.33333 z m 33.97671,-0.66666 -0.59365,-17 h 3 3 l 0.24527,7.02345 c 0.24362,6.97658 0.25508,7.01835 1.64947,6.25764 1.95684,-1.06722 6.71616,-0.3986 9.13747,1.28369 3.31189,2.30106 4.32103,5.09582 4.58666,12.70264 l 0.23511,6.73258 h -2.6042 -2.6042 l -0.46403,-6.72656 c -0.42233,-6.12198 -0.60948,-6.841 -2.08235,-8 -2.08006,-1.63678 -3.54283,-1.60882 -5.6658,0.10828 -1.64057,1.32692 -1.69916,1.64421 -1.47721,8 l 0.23112,6.61828 h -3 -3 z m 76.22117,6.33333 -0.37249,-10.66667 h 2.66667 c 1.9691,0 2.67614,0.27148 2.7029,1.0378 0.0328,0.9393 0.17344,0.9393 1.48168,0 0.79498,-0.57078 2.39678,-1.0378 3.55954,-1.0378 h 2.1141 l -0.58375,2.66667 c -0.42741,1.95246 -0.92724,2.66667 -1.86628,2.66667 -0.7054,0 -1.9932,0.73636 -2.86177,1.63636 -1.45612,1.5088 -1.5619,2.13244 -1.35701,8 l 0.22223,6.36364 h -2.66666 -2.66667 z m 16.66667,0 -0.37249,-10.66667 h 3 3 l 0.37249,10.66667 0.37249,10.66667 h -3 -3 z m -205.78357,6.19795 c -1.94777,-0.36552 -4.7608,-2.69573 -4.80568,-3.98082 -0.0238,-0.68038 1.65696,-0.8838 7.30247,-0.8838 7.92062,0 8.77793,0.45392 5.94322,3.14676 -1.51264,1.43694 -5.55386,2.25948 -8.44001,1.71786 z m -10.06268,-7.28428 c -4.88507,-2.36789 -6.63161,-10.47594 -3.05491,-14.18206 l 1.67114,-1.73161 h 13.30303 13.30303 l 1.79208,1.73161 c 3.88357,3.75252 2.70929,11.85262 -2.0513,14.14974 -3.27205,1.57884 -21.72322,1.60274 -24.96307,0.0323 z m 215.59446,-13.91367 c -1.06742,-1.54667 -1.07401,-1.78956 -0.0914,-3.37359 1.3965,-2.25132 4.19005,-2.00783 5.67574,0.4947 0.9686,1.63156 0.95651,1.90826 -0.13838,3.16666 -1.63935,1.88416 -4.03433,1.7576 -5.44593,-0.28777 z M 76.602847,120.84326 c 0.951789,-7.78 3.578968,-12.78474 8.328486,-15.86566 5.388997,-3.49575 8.183144,-3.96768 23.491427,-3.96768 h 13.879 l 0.0567,1.62234 0.0567,1.62234 -15.49263,0.211 c -17.218959,0.2345 -17.70536,0.34458 -22.49319,5.0906 -2.660404,2.63717 -4.87773,8.15124 -4.749891,11.81206 0.07151,2.04771 -0.117184,2.30833 -1.671264,2.30833 -1.686474,0 -1.738932,-0.10577 -1.405248,-2.83333 z m 4.585114,-0.52395 c 0.339785,-4.06858 2.883131,-9.29625 5.482565,-11.26903 4.067826,-3.08718 6.677249,-3.55581 21.609824,-3.881 l 14.15589,-0.30828 0.0608,1.74113 0.0608,1.74113 -12.83276,0.0163 c -7.05802,0.009 -14.165941,0.32597 -15.795371,0.70447 -5.546048,1.28827 -9.118938,5.65078 -9.920178,12.11256 -0.243835,1.96647 -0.607912,2.5 -1.705976,2.5 -1.284704,0 -1.373634,-0.26762 -1.115604,-3.35728 z m 3.868317,2.19061 c -0.09139,-2.8805 1.44154,-6.66831 3.606645,-8.91176 1.296105,-1.343 3.538226,-2.7731 4.982487,-3.17798 1.505462,-0.42204 8.24397,-0.73774 15.79247,-0.73987 l 13.16652,-0.004 0.0582,1.66667 0.0582,1.66666 h -13.73258 c -15.99011,0 -17.593372,0.40698 -19.497842,4.94943 -0.626579,1.49448 -1.12225,3.39224 -1.101494,4.21724 0.02898,1.15165 -0.349314,1.5 -1.628927,1.5 -1.144273,0 -1.67827,-0.36567 -1.703689,-1.16667 z m 4.65638,-0.18808 c -0.08884,-2.54404 1.680713,-5.88552 3.672223,-6.9343 1.611256,-0.84854 4.55088,-1.04428 15.682719,-1.04428 h 13.69977 l 0.12614,3.61214 c 0.21517,6.16166 1.51409,5.72119 -16.87153,5.72119 -15.903245,0 -16.263057,-0.0299 -16.309322,-1.35475 z m 67.081812,0.30022 c -0.24282,-0.57998 -0.49824,-2.67998 -0.56762,-4.66666 l -0.12614,-3.61214 h 13.69977 c 11.13184,0 14.08514,0.19574 15.75566,1.04428 2.06475,1.04878 4.06768,4.39026 4.15652,6.9343 0.0463,1.32486 -0.31146,1.35475 -16.2147,1.35475 -14.21383,0 -16.31761,-0.13281 -16.70349,-1.05453 z m 34.23181,-0.44547 c -0.0368,-0.825 -0.66508,-2.72276 -1.39603,-4.21724 -2.22173,-4.54245 -3.85341,-4.94943 -19.84352,-4.94943 h -13.73258 l -0.0582,-1.66666 -0.0582,-1.66667 13.1668,0.004 c 7.54864,0.002 14.3092,0.31783 15.84413,0.73987 3.43129,0.94345 7.49818,4.87311 8.5603,8.27144 1.28265,4.1037 1.15029,4.98469 -0.74901,4.98469 -1.27961,0 -1.68224,-0.34835 -1.73369,-1.5 z m 4.28012,-1.33333 c -1.26483,-6.27878 -5.10515,-10.49198 -10.73674,-11.77924 -1.65587,-0.37849 -8.78593,-0.6955 -15.84457,-0.70446 l -12.8339,-0.0163 -0.0608,-1.74113 -0.0608,-1.74113 14.17743,0.30828 c 14.95528,0.32519 17.59744,0.79382 21.88088,3.881 2.73722,1.97278 5.64567,7.20045 6.26961,11.26903 0.47081,3.07009 0.39787,3.35728 -0.85274,3.35728 -1.09048,0 -1.48325,-0.57412 -1.93836,-2.83333 z m 4.38795,0.95433 c -0.20968,-6.00462 -4.57379,-12.72963 -10.16837,-15.66928 -2.5709,-1.35087 -3.84015,-1.46638 -18.2702,-1.66271 l -15.50737,-0.211 -0.0582,-1.6674 -0.0582,-1.66741 15.19143,0.21173 15.19142,0.21174 4.53561,2.19676 c 6.84127,3.31346 10.52308,8.4973 12.05284,16.9699 0.55494,3.07358 0.52155,3.16667 -1.13577,3.16667 -1.42836,0 -1.71824,-0.30719 -1.77313,-1.879 z m -75.71872,-14.31604 c -0.21673,-11.942506 -0.12604,-13.19971 1.07358,-14.883468 2.34419,-3.290256 4.53117,-4.483472 8.78251,-4.791766 l 3.99883,-0.289982 0.54765,15.682446 0.54764,15.68244 -6.15697,0.27748 c -3.38634,0.15262 -6.69687,0.52268 -7.35674,0.82236 -1.1435,0.5193 -1.21087,-0.067 -1.4365,-12.49951 z m 28.64466,12.19504 c -0.74434,-0.31513 -3.82908,-0.59404 -6.85498,-0.61981 l -5.50164,-0.0469 -0.54709,-15.66662 -0.54709,-15.666671 h 3.02141 c 5.66423,0 9.66498,2.743827 11.1787,7.666667 0.91555,2.977516 1.89255,25.026644 1.10566,24.953144 -0.2759,-0.0257 -1.11064,-0.30468 -1.85497,-0.61981 z M 120.32298,95.332343 c -0.87902,-1.840013 -1.33619,-4.396327 -1.48836,-8.322421 l -0.21958,-5.666667 2.12428,-0.206282 c 2.11566,-0.205444 2.1219,-0.197318 1.53557,2 -0.3238,1.213456 -0.33213,4.606283 -0.0185,7.539616 0.70946,6.636027 -0.0796,8.536141 -1.93334,4.655754 z m 34.84009,1.079812 c -0.26746,-0.759175 -0.35658,-3.419423 -0.19844,-5.911661 0.16566,-2.603982 -0.0449,-5.602625 -0.49512,-7.049992 l -0.78338,-2.51865 2.13089,0.205702 c 2.13031,0.205646 2.13099,0.206865 2.49433,4.539035 0.36824,4.390496 -0.35229,8.644696 -1.84368,10.885688 -0.78636,1.181591 -0.83793,1.175659 -1.30501,-0.150122 z"
       inkscape:path-effect="#path-effect1092"
       inkscape:connector-curvature="0"
       id="path908"
       d="m 135.86312,193.44842 c -6.80027,-2.23221 -12.23496,-6.56892 -15.31633,-12.22195 -6.37032,-11.6869 -1.77353,-26.50717 9.95516,-32.09581 3.24391,-1.54571 4.60755,-1.7874 10.08448,-1.7874 5.47693,0 6.85745,0.24169 10.2093,1.7874 9.69781,4.47212 15.7231,15.30622 14.09792,25.34954 -1.84191,11.38264 -10.36668,19.10698 -21.67036,19.63564 -2.70029,0.12629 -5.79789,-0.1546 -7.36017,-0.66742 z m 15.14793,-4.73278 c 9.3085,-4.63338 13.25344,-16.58726 8.70286,-26.37115 -1.97406,-4.24431 -7.75332,-9.47345 -12.08042,-10.9305 -4.06223,-1.36787 -9.84313,-1.36787 -13.80982,0 -4.23356,1.45989 -9.63921,6.68575 -11.3235,10.94688 -1.6254,4.11216 -1.57222,10.94202 0.11889,15.26994 4.37752,11.20295 17.70285,16.40545 28.39199,11.08483 z m -15.07598,-0.0842 c -4.28749,-1.30598 -9.54647,-6.02477 -11.62976,-10.43521 -4.42844,-9.37522 -0.99588,-19.92098 7.96799,-24.47983 9.83125,-4.99998 21.66292,-0.71013 26.55155,9.62688 0.76196,1.61118 1.33101,4.38184 1.43767,7 0.53624,13.16224 -11.48571,22.19974 -24.32745,18.28816 z m 164.53636,-44.58125 c -0.18839,-5.67122 -0.59506,-17.04025 -0.59506,-17.04025 0.74348,0.01 2.2,0 2.2,0 1.21,0 2.53925,0.3278 2.95387,0.72843 0.54518,0.52679 1.12358,0.52679 2.08951,0 3.76989,-2.05601 10.76778,0.53311 13.17173,4.87335 3.5208,6.35668 0.59617,13.80566 -6.15995,15.68928 -2.40864,0.67154 -5.93559,0.29126 -6.58969,-0.7105 -1.12643,-1.72514 -1.58204,0.1266 -1.53844,6.25278 0.0262,2.28823 0.0486,6.83333 0.0486,6.83333 -0.82109,0.079 -2.49278,0.20691 -2.49278,0.20691 -0.82109,0.079 -2.49277,0.20691 -2.49277,0.20691 0.0429,1.22788 -0.6379,-18.26812 -0.59502,-17.04024 z m 13.23855,-1.34892 c 2.0922,-1.10182 2.6368,-2.22061 2.53266,-5.20289 -0.16767,-4.80146 -6.6013,-7.12662 -9.40362,-3.39853 -2.25156,2.99537 -1.39353,6.90597 1.92459,8.77155 1.81631,1.0212 2.74483,0.98926 4.94637,-0.17013 z m -193.84497,7.10743 c -3.58166,-5.25436 -4.62314,-9.65612 -3.40835,-14.40538 0.51182,-2.00092 1.71184,-4.60672 2.66673,-5.79067 0.58883,-0.70769 1.73615,-2.15263 1.73615,-2.15263 0.1652,0.5462 0.46551,1.60829 0.46551,1.60829 0.28115,0.9713 0.014,2.58796 -0.67451,4.08174 -2.17987,4.72947 -0.92078,10.69798 3.51956,16.68396 0.70896,0.95575 0.63589,1.38765 -0.41938,2.47887 -1.27445,1.31785 -1.28506,1.31101 -3.88571,-2.50418 z m 38.01338,2.65944 c -0.63577,-0.67642 -1.16171,-1.39488 -1.16875,-1.59659 -0.007,-0.2017 0.9763,-2.11043 2.18521,-4.24162 2.60003,-4.58359 2.82525,-9.35545 0.63619,-13.47988 -0.76714,-1.44538 -1.17079,-3.11803 -0.97115,-4.02427 0.1239,-0.50704 0.34163,-1.55082 0.34163,-1.55082 0.51675,0.53008 1.51995,1.55992 1.51995,1.55992 4.00544,4.1108 5.16239,12.26531 2.51559,17.73056 -0.83758,1.72948 -2.05834,3.97431 -2.71281,4.98852 -1.14795,1.779 -1.23068,1.80066 -2.34586,0.61418 z m 124.02179,-4.9582 c -4.0397,-2.00184 -6.39782,-6.10941 -6.15216,-10.71632 0.4136,-7.75628 8.66676,-12.33684 14.91567,-8.2783 2.47562,1.60786 5.49068,6.45559 5.57846,8.96922 0.0525,1.50486 -0.0547,1.5254 -7.96385,1.5254 -2.66291,0.01 -8.01712,0 -8.01712,0 0.38342,0.68644 1.12004,2.0289 1.12004,2.0289 1.66633,3.01849 3.91984,3.8048 6.84242,2.38752 2.30887,-1.11967 2.4041,-1.11172 3.99299,0.33355 1.46705,1.33445 1.53189,1.59071 0.65693,2.59633 -0.94318,1.08403 -5.08272,2.6537 -6.99835,2.6537 -0.52143,0 -2.31019,-0.675 -3.97503,-1.5 z m 8.23993,-12.9475 c -0.009,-0.24613 -0.53128,-0.99613 -1.16152,-1.66667 -1.68201,-1.78955 -5.05605,-1.57012 -6.88105,0.44751 -0.49262,0.56566 -1.50755,1.66666 -1.50755,1.66666 1.60461,0.01 4.78288,0 4.78288,0 2.63058,0 4.77584,-0.20138 4.76724,-0.4475 z m -73.42246,-2.5525 c -0.18016,-5.43553 -0.57038,-16.33333 -0.57038,-16.33333 1.00186,0.01 2.97498,0 2.97498,0 1.00186,0.01 2.97499,0 2.97499,0 0.1443,2.02581 0.40282,6.0462 0.40282,6.0462 0.1443,2.02581 0.40282,6.0462 0.40282,6.0462 2.08644,-2.0058 6.22808,-6.0462 6.22808,-6.0462 2.08644,-2.0058 6.22808,-6.0462 6.22808,-6.0462 1.41981,0.0208 4.22859,0.0325 4.22859,0.0325 1.41981,0.0208 4.22858,0.0325 4.22858,0.0325 -1.87353,1.85108 -5.64946,5.52212 -5.64946,5.52212 -1.87353,1.85108 -5.64947,5.52212 -5.64947,5.52212 1.90853,2.54784 5.69446,7.61199 5.69446,7.61199 3.13196,4.18659 6.78092,9.03699 8.10882,10.77865 0.81494,1.06577 2.41434,3.16667 2.41434,3.16667 -1.28727,0.001 -3.89103,-0.0264 -3.89103,-0.0264 -1.28727,0.001 -3.89103,-0.0264 -3.89103,-0.0264 -2.08987,-2.83842 -6.29835,-8.54355 -6.29835,-8.54355 -2.08987,-2.83842 -6.29835,-8.54356 -6.29835,-8.54356 -0.90766,0.78247 -2.75243,2.31693 -2.75243,2.31693 -0.90766,0.78247 -2.75242,2.31693 -2.75242,2.31693 0.0828,2.09476 0.21836,6.25302 0.21836,6.25302 0.0828,2.09476 0.21836,6.25303 0.21836,6.25303 -0.9902,0.01 -3,0 -3,0 -0.9902,0.01 -3,0 -3,0 -0.18016,-5.43553 -0.57037,-16.33333 -0.57037,-16.33333 0,0 1e-5,1.1e-4 1e-5,1.1e-4 m 33.97671,-0.66666 c -0.18792,-5.6578 -0.59365,-17 -0.59365,-17 1.0102,0.01 3,0 3,0 1.0102,0.01 3,0 3,0 0.0918,2.35162 0.24527,7.02345 0.24527,7.02345 0.24362,6.97658 0.25508,7.01835 1.64947,6.25764 1.95684,-1.06722 6.71616,-0.3986 9.13747,1.28369 3.31189,2.30106 4.32103,5.09582 4.58666,12.70264 0.0884,2.25464 0.23511,6.73258 0.23511,6.73258 -0.85824,0.01 -2.6042,0 -2.6042,0 -0.85824,0.01 -2.6042,0 -2.6042,0 -0.14471,-2.23263 -0.46403,-6.72656 -0.46403,-6.72656 -0.42233,-6.12198 -0.60948,-6.841 -2.08235,-8 -2.08006,-1.63678 -3.54283,-1.60882 -5.6658,0.10828 -1.64057,1.32692 -1.69916,1.64421 -1.47721,8 0.0871,2.21654 0.23112,6.61828 0.23112,6.61828 -0.9902,0.01 -3,0 -3,0 -0.9902,0.01 -3,0 -3,0 0.005,0.13241 -0.59828,-17.13241 -0.59366,-17 m 76.22117,6.33333 c -0.11419,-3.54627 -0.37249,-10.66667 -0.37249,-10.66667 0.89907,0.01 2.66667,0 2.66667,0 1.9691,0 2.67614,0.27148 2.7029,1.0378 0.0328,0.9393 0.17344,0.9393 1.48168,0 0.79498,-0.57078 2.39678,-1.0378 3.55954,-1.0378 0.71484,0.01 2.1141,0 2.1141,0 -0.18462,0.89907 -0.58375,2.66667 -0.58375,2.66667 -0.42741,1.95246 -0.92724,2.66667 -1.86628,2.66667 -0.7054,0 -1.9932,0.73636 -2.86177,1.63636 -1.45612,1.5088 -1.5619,2.13244 -1.35701,8 0.0841,2.13164 0.22223,6.36364 0.22223,6.36364 -0.87906,0.01 -2.66666,0 -2.66666,0 -0.87907,0.01 -2.66667,0 -2.66667,0 0.007,0.19616 -0.37934,-10.86283 -0.37249,-10.66667 z m 16.66667,0 c -0.11419,-3.54627 -0.37249,-10.66667 -0.37249,-10.66667 1.0102,0.01 3,0 3,0 1.0102,0.01 3,0 3,0 0.13419,3.56627 0.37249,10.66667 0.37249,10.66667 0.13419,3.56627 0.37249,10.66667 0.37249,10.66667 -0.9902,0.01 -3,0 -3,0 -0.9902,0.01 -3,0 -3,0 0.0198,0.56692 -0.39229,-11.23359 -0.37249,-10.66667 z m -205.78357,6.19795 c -1.94777,-0.36552 -4.7608,-2.69573 -4.80568,-3.98082 -0.0238,-0.68038 1.65696,-0.8838 7.30247,-0.8838 7.92062,0 8.77793,0.45392 5.94322,3.14676 -1.51264,1.43694 -5.55386,2.25948 -8.44001,1.71786 z m -10.06268,-7.28428 c -4.88507,-2.36789 -6.63161,-10.47594 -3.05491,-14.18206 0.56716,-0.56732 1.67114,-1.73161 1.67114,-1.73161 4.44523,0.01 13.30303,0 13.30303,0 4.44523,0.01 13.30303,0 13.30303,0 0.60748,0.58732 1.79208,1.73161 1.79208,1.73161 3.88357,3.75252 2.70929,11.85262 -2.0513,14.14974 -3.27205,1.57884 -21.72322,1.60274 -24.96307,0.0323 0,0 0,2e-5 0,2e-5 z m 215.59446,-13.91367 c -1.06742,-1.54667 -1.07401,-1.78956 -0.0914,-3.37359 1.3965,-2.25132 4.19005,-2.00783 5.67574,0.4947 0.9686,1.63156 0.95651,1.90826 -0.13838,3.16666 -1.63935,1.88416 -4.03433,1.7576 -5.44593,-0.28777 0,0 -3e-5,0 -3e-5,0 z M 76.602847,120.84326 c 0.951789,-7.78 3.578968,-12.78474 8.328486,-15.86566 5.388997,-3.49575 8.183144,-3.96768 23.491427,-3.96768 4.63726,0.01 13.879,0 13.879,0 0.0289,0.55089 0.0567,1.62234 0.0567,1.62234 0.0289,0.55089 0.0567,1.62234 0.0567,1.62234 -5.15524,0.0804 -15.49263,0.211 -15.49263,0.211 -17.218959,0.2345 -17.70536,0.34458 -22.49319,5.0906 -2.660404,2.63717 -4.87773,8.15124 -4.749891,11.81206 0.07151,2.04771 -0.117184,2.30833 -1.671264,2.30833 -1.686474,0 -1.738932,-0.10577 -1.405248,-2.83333 -3e-5,0 -6e-5,0 -9e-5,0 z m 4.585114,-0.52395 c 0.339785,-4.06858 2.883131,-9.29625 5.482565,-11.26903 4.067826,-3.08718 6.677249,-3.55581 21.609824,-3.881 4.72957,-0.0928 14.15589,-0.30828 14.15589,-0.30828 0.0303,0.59049 0.0608,1.74113 0.0608,1.74113 0.0303,0.59049 0.0608,1.74113 0.0608,1.74113 -4.26844,0.0154 -12.83276,0.0163 -12.83276,0.0163 -7.05802,0.009 -14.165941,0.32597 -15.795371,0.70447 -5.546048,1.28827 -9.118938,5.65078 -9.920178,12.11256 -0.243835,1.96647 -0.607912,2.5 -1.705976,2.5 -1.284704,0 -1.373634,-0.26762 -1.115604,-3.35728 0,0 1e-5,0 1e-5,0 z m 3.868317,2.19061 c -0.09139,-2.8805 1.44154,-6.66831 3.606645,-8.91176 1.296105,-1.343 3.538226,-2.7731 4.982487,-3.17798 1.505462,-0.42204 8.24397,-0.73774 15.79247,-0.73987 4.39972,0.009 13.16652,-0.004 13.16652,-0.004 0.0294,0.56567 0.0582,1.66667 0.0582,1.66667 0.0294,0.56567 0.0582,1.66666 0.0582,1.66666 -4.56844,0.01 -13.73258,0 -13.73258,0 -15.99011,0 -17.593372,0.40698 -19.497842,4.94943 -0.626579,1.49448 -1.12225,3.39224 -1.101494,4.21724 0.02898,1.15165 -0.349314,1.5 -1.628927,1.5 -1.144273,0 -1.67827,-0.36567 -1.703689,-1.16667 3e-6,9e-5 7e-6,1.9e-4 1e-5,2.8e-4 z m 4.65638,-0.18808 c -0.08884,-2.54404 1.680713,-5.88552 3.672223,-6.9343 1.611256,-0.84854 4.55088,-1.04428 15.682719,-1.04428 4.5775,0.01 13.69977,0 13.69977,0 0.0521,1.21429 0.12614,3.61214 0.12614,3.61214 0.21517,6.16166 1.51409,5.72119 -16.87153,5.72119 -15.903245,0 -16.263057,-0.0299 -16.309322,-1.35475 z m 67.081812,0.30022 c -0.24282,-0.57998 -0.49824,-2.67998 -0.56762,-4.66666 -0.0321,-1.19429 -0.12614,-3.61214 -0.12614,-3.61214 4.5775,0.01 13.69977,0 13.69977,0 11.13184,0 14.08514,0.19574 15.75566,1.04428 2.06475,1.04878 4.06768,4.39026 4.15652,6.9343 0.0463,1.32486 -0.31146,1.35475 -16.2147,1.35475 -14.21383,0 -16.31761,-0.13281 -16.70349,-1.05453 z m 34.23181,-0.44547 c -0.0368,-0.825 -0.66508,-2.72276 -1.39603,-4.21724 -2.22173,-4.54245 -3.85341,-4.94943 -19.84352,-4.94943 -4.56844,0.01 -13.73258,0 -13.73258,0 -0.009,-0.54566 -0.0582,-1.66666 -0.0582,-1.66666 -0.009,-0.54567 -0.0582,-1.66667 -0.0582,-1.66667 4.39981,0.0113 13.1668,0.004 13.1668,0.004 7.54864,0.002 14.3092,0.31783 15.84413,0.73987 3.43129,0.94345 7.49818,4.87311 8.5603,8.27144 1.28265,4.1037 1.15029,4.98469 -0.74901,4.98469 -1.27961,0 -1.68224,-0.34835 -1.73369,-1.5 z m 4.28012,-1.33333 c -1.26483,-6.27878 -5.10515,-10.49198 -10.73674,-11.77924 -1.65587,-0.37849 -8.78593,-0.6955 -15.84457,-0.70446 -4.26882,0.005 -12.8339,-0.0163 -12.8339,-0.0163 -0.0103,-0.57049 -0.0608,-1.74113 -0.0608,-1.74113 -0.0103,-0.57049 -0.0608,-1.74113 -0.0608,-1.74113 4.73676,0.11278 14.17743,0.30828 14.17743,0.30828 14.95528,0.32519 17.59744,0.79382 21.88088,3.881 2.73722,1.97278 5.64567,7.20045 6.26961,11.26903 0.47081,3.07009 0.39787,3.35728 -0.85274,3.35728 -1.09048,0 -1.48325,-0.57412 -1.93836,-2.83333 0,0 -1e-5,0 -1e-5,0 z m 4.38795,0.95433 c -0.20968,-6.00462 -4.57379,-12.72963 -10.16837,-15.66928 -2.5709,-1.35087 -3.84015,-1.46638 -18.2702,-1.66271 -5.16016,-0.0603 -15.50737,-0.211 -15.50737,-0.211 -0.009,-0.54591 -0.0582,-1.6674 -0.0582,-1.6674 -0.009,-0.54591 -0.0582,-1.66741 -0.0582,-1.66741 5.07482,0.0806 15.19143,0.21173 15.19143,0.21173 5.07482,0.0806 15.19142,0.21174 15.19142,0.21174 1.52217,0.7424 4.53561,2.19676 4.53561,2.19676 6.84127,3.31346 10.52308,8.4973 12.05284,16.9699 0.55494,3.07358 0.52155,3.16667 -1.13577,3.16667 -1.42836,0 -1.71824,-0.30719 -1.77313,-1.879 0,0 -6e-5,0 -6e-5,0 z m -75.71872,-14.31604 c -0.21673,-11.942505 -0.12604,-13.199709 1.07358,-14.883467 2.34419,-3.290257 4.53117,-4.483473 8.78251,-4.791767 1.34321,-0.08668 3.99883,-0.289982 3.99883,-0.289982 0.19259,5.238528 0.54765,15.682446 0.54765,15.682446 0.19258,5.23853 0.54764,15.68244 0.54764,15.68244 -2.04273,0.10251 -6.15697,0.27748 -6.15697,0.27748 -3.38634,0.15262 -6.69687,0.52268 -7.35674,0.82236 -1.1435,0.5193 -1.21087,-0.067 -1.4365,-12.49951 z m 28.64466,12.19504 c -0.74434,-0.31513 -3.82908,-0.59404 -6.85498,-0.61981 -1.82425,-0.006 -5.50164,-0.0469 -5.50164,-0.0469 -0.1724,-5.21325 -0.54709,-15.66662 -0.54709,-15.66662 -0.1724,-5.213267 -0.54709,-15.666671 -0.54709,-15.666671 1.01734,0.01 3.02141,10e-7 3.02141,10e-7 5.66423,0 9.66498,2.743827 11.1787,7.666667 0.91555,2.977517 1.89255,25.026643 1.10566,24.953143 -0.2759,-0.0257 -1.11064,-0.30468 -1.85497,-0.61981 z M 120.32298,95.332344 c -0.87902,-1.840014 -1.33619,-4.396328 -1.48836,-8.322422 -0.0632,-1.879267 -0.21958,-5.666667 -0.21958,-5.666667 0.71823,-0.05877 2.12428,-0.206282 2.12428,-0.206282 2.11566,-0.205444 2.1219,-0.197318 1.53557,2 -0.3238,1.213456 -0.33213,4.606283 -0.0185,7.539616 0.70946,6.636028 -0.0796,8.536142 -1.93334,4.655755 0,0 -7e-5,0 -7e-5,0 z m 34.84009,1.079812 c -0.26746,-0.759175 -0.35658,-3.419423 -0.19844,-5.911661 0.16566,-2.603982 -0.0449,-5.602626 -0.49512,-7.049993 -0.25118,-0.829718 -0.78338,-2.51865 -0.78338,-2.51865 0.72044,0.07858 2.13089,0.205702 2.13089,0.205702 2.13031,0.205646 2.13099,0.206865 2.49433,4.539035 0.36824,4.390497 -0.35229,8.644697 -1.84368,10.885689 -0.78636,1.181591 -0.83793,1.175659 -1.30501,-0.150122 0,0 4.1e-4,0 4.1e-4,0 z"
       style="fill:#154def;fill-opacity:1;stroke-width:0.666667" />
  </g>
</svg>
