<?xml version="1.0" encoding="UTF-8" standalone="no"?>
<svg
   xmlns:dc="http://purl.org/dc/elements/1.1/"
   xmlns:cc="http://creativecommons.org/ns#"
   xmlns:rdf="http://www.w3.org/1999/02/22-rdf-syntax-ns#"
   xmlns:svg="http://www.w3.org/2000/svg"
   xmlns="http://www.w3.org/2000/svg"
   width="69.926636mm"
   height="70.030685mm"
   viewBox="0 0 185.00539 185.28068"
   version="1.1"
   id="svg8">
  <defs
     id="defs2">
    <marker
       orient="auto"
       refY="0"
       refX="0"
       id="Arrow1Send"
       style="overflow:visible">
      <path
         id="path968"
         d="M 0,0 5,-5 -12.5,0 5,5 Z"
         style="fill:none;fill-opacity:1;fill-rule:evenodd;stroke:#7060ed;stroke-width:1pt;stroke-opacity:0.915323"
         transform="matrix(-0.2,0,0,-0.2,-1.2,0)" />
    </marker>
  </defs>
  <metadata
     id="metadata5">
    <rdf:RDF>
      <cc:Work
         rdf:about="">
        <dc:format>image/svg+xml</dc:format>
        <dc:type
           rdf:resource="http://purl.org/dc/dcmitype/StillImage" />
        <dc:title></dc:title>
      </cc:Work>
    </rdf:RDF>
  </metadata>
  <g
     transform="translate(-16.008104,-66.707796)"
     id="layer5"
     style="display:inline">
    <g
       transform="matrix(1,0,0,0.37018539,8.7635802e-7,85.13751)"
       id="g1470">
      <path
         style="color:#000000;font-style:normal;font-variant:normal;font-weight:normal;font-stretch:normal;font-size:medium;line-height:normal;font-family:sans-serif;font-variant-ligatures:normal;font-variant-position:normal;font-variant-caps:normal;font-variant-numeric:normal;font-variant-alternates:normal;font-variant-east-asian:normal;font-feature-settings:normal;font-variation-settings:normal;text-indent:0;text-align:start;text-decoration:none;text-decoration-line:none;text-decoration-style:solid;text-decoration-color:#000000;letter-spacing:normal;word-spacing:normal;text-transform:none;writing-mode:lr-tb;direction:ltr;text-orientation:mixed;dominant-baseline:auto;baseline-shift:baseline;text-anchor:start;white-space:normal;shape-padding:0;shape-margin:0;inline-size:0;clip-rule:nonzero;display:inline;overflow:visible;visibility:visible;isolation:auto;mix-blend-mode:normal;color-interpolation:sRGB;color-interpolation-filters:linearRGB;solid-color:#000000;solid-opacity:1;vector-effect:none;fill:#7368e5;fill-opacity:1;fill-rule:nonzero;stroke:none;stroke-width:2.91042;stroke-linecap:butt;stroke-linejoin:round;stroke-miterlimit:4;stroke-dasharray:none;stroke-dashoffset:0;stroke-opacity:1;color-rendering:auto;image-rendering:auto;shape-rendering:auto;text-rendering:auto;enable-background:accumulate;stop-color:#000000"
         d="m 42.332032,218.41406 c 6.644179,0 12.039059,-5.39488 12.039059,-12.03907 V 47.624991 c 0,-6.644179 -5.39488,-12.03906 -12.039059,-12.03906 -6.64418,0 -12.03711,5.394881 -12.03711,12.03906 V 206.37499 c 0,6.64419 5.39293,12.03907 12.03711,12.03907 z m 0,-2.91016 c -5.08215,0 -9.12695,-4.04675 -9.12695,-9.12891 V 47.624991 c 0,-5.08216 4.0448,-9.128909 9.12695,-9.128909 5.08215,0 9.12891,4.04675 9.12891,9.128909 V 206.37499 c 0,5.08216 -4.04676,9.12891 -9.12891,9.12891 z"
         id="path962" />
      <g
         transform="rotate(180,40.335939,126.65625)"
         style="fill:#7368e5;fill-opacity:1"
         id="g964">
        <path
           style="color:#000000;font-style:normal;font-variant:normal;font-weight:normal;font-stretch:normal;font-size:medium;line-height:normal;font-family:sans-serif;font-variant-ligatures:normal;font-variant-position:normal;font-variant-caps:normal;font-variant-numeric:normal;font-variant-alternates:normal;font-variant-east-asian:normal;font-feature-settings:normal;font-variation-settings:normal;text-indent:0;text-align:start;text-decoration:none;text-decoration-line:none;text-decoration-style:solid;text-decoration-color:#000000;letter-spacing:normal;word-spacing:normal;text-transform:none;writing-mode:lr-tb;direction:ltr;text-orientation:mixed;dominant-baseline:auto;baseline-shift:baseline;text-anchor:start;white-space:normal;shape-padding:0;shape-margin:0;inline-size:0;clip-rule:nonzero;display:inline;overflow:visible;visibility:visible;isolation:auto;mix-blend-mode:normal;color-interpolation:sRGB;color-interpolation-filters:linearRGB;solid-color:#000000;solid-opacity:1;vector-effect:none;fill:#7368e5;fill-opacity:1;fill-rule:nonzero;stroke:none;stroke-width:2.91042;stroke-linecap:butt;stroke-linejoin:round;stroke-miterlimit:4;stroke-dasharray:none;stroke-dashoffset:0;stroke-opacity:1;color-rendering:auto;image-rendering:auto;shape-rendering:auto;text-rendering:auto;enable-background:accumulate;stop-color:#000000;stop-opacity:1"
           d="m 40.336382,38.55357 c 4.338057,0 7.830427,4.720166 7.830427,10.583333 V 204.17683 c 0,5.86316 -3.49237,10.58333 -7.830427,10.58333 -4.338057,0 -7.830427,-4.72017 -7.830427,-10.58333 V 49.136903 c 0,-5.863167 3.49237,-10.583333 7.830427,-10.583333 z"
           id="path966" />
        <path
           style="color:#000000;font-style:normal;font-variant:normal;font-weight:normal;font-stretch:normal;font-size:medium;line-height:normal;font-family:sans-serif;font-variant-ligatures:normal;font-variant-position:normal;font-variant-caps:normal;font-variant-numeric:normal;font-variant-alternates:normal;font-variant-east-asian:normal;font-feature-settings:normal;font-variation-settings:normal;text-indent:0;text-align:start;text-decoration:none;text-decoration-line:none;text-decoration-style:solid;text-decoration-color:#000000;letter-spacing:normal;word-spacing:normal;text-transform:none;writing-mode:lr-tb;direction:ltr;text-orientation:mixed;dominant-baseline:auto;baseline-shift:baseline;text-anchor:start;white-space:normal;shape-padding:0;shape-margin:0;inline-size:0;clip-rule:nonzero;display:inline;overflow:visible;visibility:visible;isolation:auto;mix-blend-mode:normal;color-interpolation:sRGB;color-interpolation-filters:linearRGB;solid-color:#000000;solid-opacity:1;vector-effect:none;fill:#7368e5;fill-opacity:1;fill-rule:nonzero;stroke:none;stroke-width:2.91042;stroke-linecap:butt;stroke-linejoin:round;stroke-miterlimit:4;stroke-dasharray:none;stroke-dashoffset:0;stroke-opacity:1;color-rendering:auto;image-rendering:auto;shape-rendering:auto;text-rendering:auto;enable-background:accumulate;stop-color:#000000;stop-opacity:1"
           d="m 40.335938,37.097656 c -2.696825,0 -5.084183,1.484928 -6.710938,3.683594 -1.626755,2.198666 -2.574219,5.134955 -2.574219,8.355469 V 204.17773 c 0,3.22051 0.947464,6.15681 2.574219,8.35547 1.626755,2.19867 4.014112,3.68164 6.710938,3.68164 2.696825,0 5.086135,-1.48297 6.71289,-3.68164 1.626755,-2.19866 2.572266,-5.13496 2.572266,-8.35547 V 49.136719 c 0,-3.220514 -0.945511,-6.156803 -2.572266,-8.355469 -1.626755,-2.198666 -4.016066,-3.683594 -6.71289,-3.683594 z m 0,2.910156 c 1.641232,0 3.169102,0.876698 4.373046,2.503907 1.203944,1.627208 2.001954,3.982346 2.001954,6.625 V 204.17773 c 0,2.64265 -0.79801,4.99584 -2.001954,6.62305 -1.203944,1.62721 -2.731815,2.50391 -4.373046,2.50391 -1.641232,0 -3.16715,-0.8767 -4.371094,-2.50391 -1.203944,-1.62721 -2.003906,-3.9804 -2.003906,-6.62305 V 49.136719 c 0,-2.642654 0.799962,-4.997792 2.003906,-6.625 1.203944,-1.627209 2.729861,-2.503906 4.371094,-2.503907 z"
           id="path969" />
      </g>
    </g>
    <g
       transform="matrix(0.87098241,0,0,1,11.722876,-21.374729)"
       id="g1458">
      <path
         style="color:#000000;font-style:normal;font-variant:normal;font-weight:normal;font-stretch:normal;font-size:medium;line-height:normal;font-family:sans-serif;font-variant-ligatures:normal;font-variant-position:normal;font-variant-caps:normal;font-variant-numeric:normal;font-variant-alternates:normal;font-variant-east-asian:normal;font-feature-settings:normal;font-variation-settings:normal;text-indent:0;text-align:start;text-decoration:none;text-decoration-line:none;text-decoration-style:solid;text-decoration-color:#000000;letter-spacing:normal;word-spacing:normal;text-transform:none;writing-mode:lr-tb;direction:ltr;text-orientation:mixed;dominant-baseline:auto;baseline-shift:baseline;text-anchor:start;white-space:normal;shape-padding:0;shape-margin:0;inline-size:0;clip-rule:nonzero;display:inline;overflow:visible;visibility:visible;isolation:auto;mix-blend-mode:normal;color-interpolation:sRGB;color-interpolation-filters:linearRGB;solid-color:#000000;solid-opacity:1;vector-effect:none;fill:#7368e5;fill-opacity:1;fill-rule:nonzero;stroke:none;stroke-width:2.91042;stroke-linecap:butt;stroke-linejoin:round;stroke-miterlimit:4;stroke-dasharray:none;stroke-dashoffset:0;stroke-opacity:1;color-rendering:auto;image-rendering:auto;shape-rendering:auto;text-rendering:auto;enable-background:accumulate;stop-color:#000000"
         d="m 111.12501,181.37109 c 9.55397,0 17.33007,-7.7761 17.33007,-17.33008 0,-9.55397 -7.7761,-17.33007 -17.33007,-17.33007 -9.55397,0 -17.330081,7.7761 -17.330081,17.33007 0,9.55398 7.776111,17.33008 17.330081,17.33008 z m 0,-2.91015 c -7.98107,0 -14.41992,-6.43886 -14.41992,-14.41993 0,-7.98106 6.43885,-14.41992 14.41992,-14.41992 7.98107,0 14.41992,6.43886 14.41992,14.41992 0,7.98107 -6.43885,14.41993 -14.41992,14.41993 z"
         id="path973" />
      <g
         transform="matrix(-0.9619348,0,0,-1,213.88013,328.08398)"
         style="fill:#7368e5;fill-opacity:1"
         id="g975">
        <path
           style="color:#000000;font-style:normal;font-variant:normal;font-weight:normal;font-stretch:normal;font-size:medium;line-height:normal;font-family:sans-serif;font-variant-ligatures:normal;font-variant-position:normal;font-variant-caps:normal;font-variant-numeric:normal;font-variant-alternates:normal;font-variant-east-asian:normal;font-feature-settings:normal;font-variation-settings:normal;text-indent:0;text-align:start;text-decoration:none;text-decoration-line:none;text-decoration-style:solid;text-decoration-color:#000000;letter-spacing:normal;word-spacing:normal;text-transform:none;writing-mode:lr-tb;direction:ltr;text-orientation:mixed;dominant-baseline:auto;baseline-shift:baseline;text-anchor:start;white-space:normal;shape-padding:0;shape-margin:0;inline-size:0;clip-rule:nonzero;display:inline;overflow:visible;visibility:visible;isolation:auto;mix-blend-mode:normal;color-interpolation:sRGB;color-interpolation-filters:linearRGB;solid-color:#000000;solid-opacity:1;vector-effect:none;fill:#7368e5;fill-opacity:1;fill-rule:nonzero;stroke:none;stroke-width:2.91042;stroke-linecap:butt;stroke-linejoin:round;stroke-miterlimit:4;stroke-dasharray:none;stroke-dashoffset:0;stroke-opacity:1;color-rendering:auto;image-rendering:auto;shape-rendering:auto;text-rendering:auto;enable-background:accumulate;stop-color:#000000;stop-opacity:1"
           d="m 122.52913,164.04167 c 0,7.30627 -5.9229,13.22918 -13.22917,13.22918 -7.30628,0 -13.229182,-5.9229 -13.22918,-13.22918 -2e-6,-7.30628 5.9229,-13.22918 13.22918,-13.22918 7.30627,0 13.22917,5.92291 13.22917,13.22918"
           id="path977" />
        <path
           style="color:#000000;font-style:normal;font-variant:normal;font-weight:normal;font-stretch:normal;font-size:medium;line-height:normal;font-family:sans-serif;font-variant-ligatures:normal;font-variant-position:normal;font-variant-caps:normal;font-variant-numeric:normal;font-variant-alternates:normal;font-variant-east-asian:normal;font-feature-settings:normal;font-variation-settings:normal;text-indent:0;text-align:start;text-decoration:none;text-decoration-line:none;text-decoration-style:solid;text-decoration-color:#000000;letter-spacing:normal;word-spacing:normal;text-transform:none;writing-mode:lr-tb;direction:ltr;text-orientation:mixed;dominant-baseline:auto;baseline-shift:baseline;text-anchor:start;white-space:normal;shape-padding:0;shape-margin:0;inline-size:0;clip-rule:nonzero;display:inline;overflow:visible;visibility:visible;isolation:auto;mix-blend-mode:normal;color-interpolation:sRGB;color-interpolation-filters:linearRGB;solid-color:#000000;solid-opacity:1;vector-effect:none;fill:#7368e5;fill-opacity:1;fill-rule:nonzero;stroke:none;stroke-width:2.91042;stroke-linecap:butt;stroke-linejoin:round;stroke-miterlimit:4;stroke-dasharray:none;stroke-dashoffset:0;stroke-opacity:1;color-rendering:auto;image-rendering:auto;shape-rendering:auto;text-rendering:auto;enable-background:accumulate;stop-color:#000000;stop-opacity:1"
           d="m 109.30078,149.35742 c -8.09273,0 -14.685547,6.59087 -14.685546,14.6836 -10e-7,8.09272 6.592816,14.68554 14.685546,14.68554 8.09273,0 14.6836,-6.59282 14.6836,-14.68554 0,-8.09273 -6.59087,-14.68359 -14.6836,-14.6836 z m 0,2.91016 c 6.51982,0 11.77344,5.25362 11.77344,11.77344 0,6.51981 -5.25362,11.77538 -11.77344,11.77539 -6.51982,0 -11.775391,-5.25557 -11.775389,-11.77539 -2e-6,-6.51983 5.255569,-11.77344 11.775389,-11.77344 z"
           id="path979" />
      </g>
    </g>
    <g
       transform="matrix(1,0,0,0.40405165,1.3388968,91.171163)"
       id="g1464">
      <path
         style="color:#000000;font-style:normal;font-variant:normal;font-weight:normal;font-stretch:normal;font-size:medium;line-height:normal;font-family:sans-serif;font-variant-ligatures:normal;font-variant-position:normal;font-variant-caps:normal;font-variant-numeric:normal;font-variant-alternates:normal;font-variant-east-asian:normal;font-feature-settings:normal;font-variation-settings:normal;text-indent:0;text-align:start;text-decoration:none;text-decoration-line:none;text-decoration-style:solid;text-decoration-color:#000000;letter-spacing:normal;word-spacing:normal;text-transform:none;writing-mode:lr-tb;direction:ltr;text-orientation:mixed;dominant-baseline:auto;baseline-shift:baseline;text-anchor:start;white-space:normal;shape-padding:0;shape-margin:0;inline-size:0;clip-rule:nonzero;display:inline;overflow:visible;visibility:visible;isolation:auto;mix-blend-mode:normal;color-interpolation:sRGB;color-interpolation-filters:linearRGB;solid-color:#000000;solid-opacity:1;vector-effect:none;fill:#7368e5;fill-opacity:1;fill-rule:nonzero;stroke:none;stroke-width:2.91042;stroke-linecap:butt;stroke-linejoin:round;stroke-miterlimit:4;stroke-dasharray:none;stroke-dashoffset:0;stroke-opacity:1;color-rendering:auto;image-rendering:auto;shape-rendering:auto;text-rendering:auto;enable-background:accumulate;stop-color:#000000"
         d="m 74.08203,260.7474 c 6.644181,0 12.03906,-5.39488 12.03906,-12.03906 V 89.95833 c 0,-6.64418 -5.394879,-12.03906 -12.03906,-12.03906 -6.64418,0 -12.03711,5.39488 -12.03711,12.03906 v 158.75001 c 0,6.64418 5.39293,12.03906 12.03711,12.03906 z m 0,-2.91016 c -5.082151,0 -9.12695,-4.04675 -9.12695,-9.1289 V 89.95833 c 0,-5.08216 4.044799,-9.12891 9.12695,-9.12891 5.08215,0 9.128909,4.04675 9.128909,9.12891 v 158.75001 c 0,5.08215 -4.046759,9.1289 -9.128909,9.1289 z"
         id="path983" />
      <g
         style="fill:#7368e5;fill-opacity:1"
         transform="rotate(180,56.210938,147.82292)"
         id="g985">
        <path
           style="color:#000000;font-style:normal;font-variant:normal;font-weight:normal;font-stretch:normal;font-size:medium;line-height:normal;font-family:sans-serif;font-variant-ligatures:normal;font-variant-position:normal;font-variant-caps:normal;font-variant-numeric:normal;font-variant-alternates:normal;font-variant-east-asian:normal;font-feature-settings:normal;font-variation-settings:normal;text-indent:0;text-align:start;text-decoration:none;text-decoration-line:none;text-decoration-style:solid;text-decoration-color:#000000;letter-spacing:normal;word-spacing:normal;text-transform:none;writing-mode:lr-tb;direction:ltr;text-orientation:mixed;dominant-baseline:auto;baseline-shift:baseline;text-anchor:start;white-space:normal;shape-padding:0;shape-margin:0;inline-size:0;clip-rule:nonzero;display:inline;overflow:visible;visibility:visible;isolation:auto;mix-blend-mode:normal;color-interpolation:sRGB;color-interpolation-filters:linearRGB;solid-color:#000000;solid-opacity:1;vector-effect:none;fill:#7368e5;fill-opacity:1;fill-rule:nonzero;stroke:none;stroke-width:2.91042;stroke-linecap:butt;stroke-linejoin:round;stroke-miterlimit:4;stroke-dasharray:none;stroke-dashoffset:0;stroke-opacity:1;color-rendering:auto;image-rendering:auto;shape-rendering:auto;text-rendering:auto;enable-background:accumulate;stop-color:#000000;stop-opacity:1"
           d="m 40.336382,38.55357 c 4.338057,0 7.830427,4.720166 7.830427,10.583333 V 204.17683 c 0,5.86316 -3.49237,10.58333 -7.830427,10.58333 -4.338057,0 -7.830427,-4.72017 -7.830427,-10.58333 V 49.136903 c 0,-5.863167 3.49237,-10.583333 7.830427,-10.583333 z"
           id="path987" />
        <path
           style="color:#000000;font-style:normal;font-variant:normal;font-weight:normal;font-stretch:normal;font-size:medium;line-height:normal;font-family:sans-serif;font-variant-ligatures:normal;font-variant-position:normal;font-variant-caps:normal;font-variant-numeric:normal;font-variant-alternates:normal;font-variant-east-asian:normal;font-feature-settings:normal;font-variation-settings:normal;text-indent:0;text-align:start;text-decoration:none;text-decoration-line:none;text-decoration-style:solid;text-decoration-color:#000000;letter-spacing:normal;word-spacing:normal;text-transform:none;writing-mode:lr-tb;direction:ltr;text-orientation:mixed;dominant-baseline:auto;baseline-shift:baseline;text-anchor:start;white-space:normal;shape-padding:0;shape-margin:0;inline-size:0;clip-rule:nonzero;display:inline;overflow:visible;visibility:visible;isolation:auto;mix-blend-mode:normal;color-interpolation:sRGB;color-interpolation-filters:linearRGB;solid-color:#000000;solid-opacity:1;vector-effect:none;fill:#7368e5;fill-opacity:1;fill-rule:nonzero;stroke:none;stroke-width:2.91042;stroke-linecap:butt;stroke-linejoin:round;stroke-miterlimit:4;stroke-dasharray:none;stroke-dashoffset:0;stroke-opacity:1;color-rendering:auto;image-rendering:auto;shape-rendering:auto;text-rendering:auto;enable-background:accumulate;stop-color:#000000;stop-opacity:1"
           d="m 40.335938,37.097656 c -2.696825,0 -5.084183,1.484928 -6.710938,3.683594 -1.626755,2.198666 -2.574219,5.134955 -2.574219,8.355469 V 204.17773 c 0,3.22051 0.947464,6.15681 2.574219,8.35547 1.626755,2.19867 4.014112,3.68164 6.710938,3.68164 2.696825,0 5.086135,-1.48297 6.71289,-3.68164 1.626755,-2.19866 2.572266,-5.13496 2.572266,-8.35547 V 49.136719 c 0,-3.220514 -0.945511,-6.156803 -2.572266,-8.355469 -1.626755,-2.198666 -4.016066,-3.683594 -6.71289,-3.683594 z m 0,2.910156 c 1.641232,0 3.169102,0.876698 4.373046,2.503907 1.203944,1.627208 2.001954,3.982346 2.001954,6.625 V 204.17773 c 0,2.64265 -0.79801,4.99584 -2.001954,6.62305 -1.203944,1.62721 -2.731815,2.50391 -4.373046,2.50391 -1.641232,0 -3.16715,-0.8767 -4.371094,-2.50391 -1.203944,-1.62721 -2.003906,-3.9804 -2.003906,-6.62305 V 49.136719 c 0,-2.642654 0.799962,-4.997792 2.003906,-6.625 1.203944,-1.627209 2.729861,-2.503906 4.371094,-2.503907 z"
           id="path989" />
      </g>
    </g>
    <g
       transform="matrix(1,0,0,0.66933674,-2.0948712,49.006236)"
       id="g1476">
      <path
         style="color:#000000;font-style:normal;font-variant:normal;font-weight:normal;font-stretch:normal;font-size:medium;line-height:normal;font-family:sans-serif;font-variant-ligatures:normal;font-variant-position:normal;font-variant-caps:normal;font-variant-numeric:normal;font-variant-alternates:normal;font-variant-east-asian:normal;font-feature-settings:normal;font-variation-settings:normal;text-indent:0;text-align:start;text-decoration:none;text-decoration-line:none;text-decoration-style:solid;text-decoration-color:#000000;letter-spacing:normal;word-spacing:normal;text-transform:none;writing-mode:lr-tb;direction:ltr;text-orientation:mixed;dominant-baseline:auto;baseline-shift:baseline;text-anchor:start;white-space:normal;shape-padding:0;shape-margin:0;inline-size:0;clip-rule:nonzero;display:inline;overflow:visible;visibility:visible;isolation:auto;mix-blend-mode:normal;color-interpolation:sRGB;color-interpolation-filters:linearRGB;solid-color:#000000;solid-opacity:1;vector-effect:none;fill:#7368e5;fill-opacity:1;fill-rule:nonzero;stroke:none;stroke-width:2.91042;stroke-linecap:butt;stroke-linejoin:round;stroke-miterlimit:4;stroke-dasharray:none;stroke-dashoffset:0;stroke-opacity:1;color-rendering:auto;image-rendering:auto;shape-rendering:auto;text-rendering:auto;enable-background:accumulate;stop-color:#000000"
         d="m 143.69359,281.91405 c 6.64418,0 12.03906,-5.39488 12.03906,-12.03906 V 111.12498 c 0,-6.64418 -5.39488,-12.03906 -12.03906,-12.03906 -6.64419,0 -12.03711,5.39488 -12.03711,12.03906 v 158.75001 c 0,6.64418 5.39292,12.03906 12.03711,12.03906 z m 0,-2.91016 c -5.08215,0 -9.12696,-4.04675 -9.12696,-9.1289 V 111.12498 c 0,-5.08216 4.04481,-9.12891 9.12696,-9.12891 5.08215,0 9.1289,4.04675 9.1289,9.12891 v 158.75001 c 0,5.08215 -4.04675,9.1289 -9.1289,9.1289 z"
         id="path993" />
      <g
         style="fill:#7368e5;fill-opacity:1"
         transform="rotate(180,91.016724,158.40625)"
         id="g995">
        <path
           style="color:#000000;font-style:normal;font-variant:normal;font-weight:normal;font-stretch:normal;font-size:medium;line-height:normal;font-family:sans-serif;font-variant-ligatures:normal;font-variant-position:normal;font-variant-caps:normal;font-variant-numeric:normal;font-variant-alternates:normal;font-variant-east-asian:normal;font-feature-settings:normal;font-variation-settings:normal;text-indent:0;text-align:start;text-decoration:none;text-decoration-line:none;text-decoration-style:solid;text-decoration-color:#000000;letter-spacing:normal;word-spacing:normal;text-transform:none;writing-mode:lr-tb;direction:ltr;text-orientation:mixed;dominant-baseline:auto;baseline-shift:baseline;text-anchor:start;white-space:normal;shape-padding:0;shape-margin:0;inline-size:0;clip-rule:nonzero;display:inline;overflow:visible;visibility:visible;isolation:auto;mix-blend-mode:normal;color-interpolation:sRGB;color-interpolation-filters:linearRGB;solid-color:#000000;solid-opacity:1;vector-effect:none;fill:#7368e5;fill-opacity:1;fill-rule:nonzero;stroke:none;stroke-width:2.91042;stroke-linecap:butt;stroke-linejoin:round;stroke-miterlimit:4;stroke-dasharray:none;stroke-dashoffset:0;stroke-opacity:1;color-rendering:auto;image-rendering:auto;shape-rendering:auto;text-rendering:auto;enable-background:accumulate;stop-color:#000000;stop-opacity:1"
           d="m 40.336382,38.55357 c 4.338057,0 7.830427,4.720166 7.830427,10.583333 V 204.17683 c 0,5.86316 -3.49237,10.58333 -7.830427,10.58333 -4.338057,0 -7.830427,-4.72017 -7.830427,-10.58333 V 49.136903 c 0,-5.863167 3.49237,-10.583333 7.830427,-10.583333 z"
           id="path997" />
        <path
           style="color:#000000;font-style:normal;font-variant:normal;font-weight:normal;font-stretch:normal;font-size:medium;line-height:normal;font-family:sans-serif;font-variant-ligatures:normal;font-variant-position:normal;font-variant-caps:normal;font-variant-numeric:normal;font-variant-alternates:normal;font-variant-east-asian:normal;font-feature-settings:normal;font-variation-settings:normal;text-indent:0;text-align:start;text-decoration:none;text-decoration-line:none;text-decoration-style:solid;text-decoration-color:#000000;letter-spacing:normal;word-spacing:normal;text-transform:none;writing-mode:lr-tb;direction:ltr;text-orientation:mixed;dominant-baseline:auto;baseline-shift:baseline;text-anchor:start;white-space:normal;shape-padding:0;shape-margin:0;inline-size:0;clip-rule:nonzero;display:inline;overflow:visible;visibility:visible;isolation:auto;mix-blend-mode:normal;color-interpolation:sRGB;color-interpolation-filters:linearRGB;solid-color:#000000;solid-opacity:1;vector-effect:none;fill:#7368e5;fill-opacity:1;fill-rule:nonzero;stroke:none;stroke-width:2.91042;stroke-linecap:butt;stroke-linejoin:round;stroke-miterlimit:4;stroke-dasharray:none;stroke-dashoffset:0;stroke-opacity:1;color-rendering:auto;image-rendering:auto;shape-rendering:auto;text-rendering:auto;enable-background:accumulate;stop-color:#000000;stop-opacity:1"
           d="m 40.335938,37.097656 c -2.696825,0 -5.084183,1.484928 -6.710938,3.683594 -1.626755,2.198666 -2.574219,5.134955 -2.574219,8.355469 V 204.17773 c 0,3.22051 0.947464,6.15681 2.574219,8.35547 1.626755,2.19867 4.014112,3.68164 6.710938,3.68164 2.696825,0 5.086135,-1.48297 6.71289,-3.68164 1.626755,-2.19866 2.572266,-5.13496 2.572266,-8.35547 V 49.136719 c 0,-3.220514 -0.945511,-6.156803 -2.572266,-8.355469 -1.626755,-2.198666 -4.016066,-3.683594 -6.71289,-3.683594 z m 0,2.910156 c 1.641232,0 3.169102,0.876698 4.373046,2.503907 1.203944,1.627208 2.001954,3.982346 2.001954,6.625 V 204.17773 c 0,2.64265 -0.79801,4.99584 -2.001954,6.62305 -1.203944,1.62721 -2.731815,2.50391 -4.373046,2.50391 -1.641232,0 -3.16715,-0.8767 -4.371094,-2.50391 -1.203944,-1.62721 -2.003906,-3.9804 -2.003906,-6.62305 V 49.136719 c 0,-2.642654 0.799962,-4.997792 2.003906,-6.625 1.203944,-1.627209 2.729861,-2.503906 4.371094,-2.503907 z"
           id="path999" />
      </g>
    </g>
    <g
       transform="matrix(1,0,0,0.66933674,-1.5188395e-5,65.271433)"
       id="g1482">
      <path
         style="color:#000000;font-style:normal;font-variant:normal;font-weight:normal;font-stretch:normal;font-size:medium;line-height:normal;font-family:sans-serif;font-variant-ligatures:normal;font-variant-position:normal;font-variant-caps:normal;font-variant-numeric:normal;font-variant-alternates:normal;font-variant-east-asian:normal;font-feature-settings:normal;font-variation-settings:normal;text-indent:0;text-align:start;text-decoration:none;text-decoration-line:none;text-decoration-style:solid;text-decoration-color:#000000;letter-spacing:normal;word-spacing:normal;text-transform:none;writing-mode:lr-tb;direction:ltr;text-orientation:mixed;dominant-baseline:auto;baseline-shift:baseline;text-anchor:start;white-space:normal;shape-padding:0;shape-margin:0;inline-size:0;clip-rule:nonzero;display:inline;overflow:visible;visibility:visible;isolation:auto;mix-blend-mode:normal;color-interpolation:sRGB;color-interpolation-filters:linearRGB;solid-color:#000000;solid-opacity:1;vector-effect:none;fill:#7368e5;fill-opacity:1;fill-rule:nonzero;stroke:none;stroke-width:2.91042;stroke-linecap:butt;stroke-linejoin:round;stroke-miterlimit:4;stroke-dasharray:none;stroke-dashoffset:0;stroke-opacity:1;color-rendering:auto;image-rendering:auto;shape-rendering:auto;text-rendering:auto;enable-background:accumulate;stop-color:#000000"
         d="m 174.68763,206.31882 c 6.64418,0 12.03906,-5.39488 12.03906,-12.03906 V 35.52975 c 0,-6.64418 -5.39488,-12.03906 -12.03906,-12.03906 -6.64419,0 -12.03711,5.39488 -12.03711,12.03906 v 158.75001 c 0,6.64418 5.39292,12.03906 12.03711,12.03906 z m 0,-2.91016 c -5.08215,0 -9.12696,-4.04675 -9.12696,-9.1289 V 35.52975 c 0,-5.08216 4.04481,-9.12891 9.12696,-9.12891 5.08215,0 9.1289,4.04675 9.1289,9.12891 v 158.75001 c 0,5.08215 -4.04675,9.1289 -9.1289,9.1289 z"
         id="path1003" />
      <g
         style="fill:#7368e5;fill-opacity:1"
         transform="rotate(180,106.51374,120.60863)"
         id="g1005">
        <path
           style="color:#000000;font-style:normal;font-variant:normal;font-weight:normal;font-stretch:normal;font-size:medium;line-height:normal;font-family:sans-serif;font-variant-ligatures:normal;font-variant-position:normal;font-variant-caps:normal;font-variant-numeric:normal;font-variant-alternates:normal;font-variant-east-asian:normal;font-feature-settings:normal;font-variation-settings:normal;text-indent:0;text-align:start;text-decoration:none;text-decoration-line:none;text-decoration-style:solid;text-decoration-color:#000000;letter-spacing:normal;word-spacing:normal;text-transform:none;writing-mode:lr-tb;direction:ltr;text-orientation:mixed;dominant-baseline:auto;baseline-shift:baseline;text-anchor:start;white-space:normal;shape-padding:0;shape-margin:0;inline-size:0;clip-rule:nonzero;display:inline;overflow:visible;visibility:visible;isolation:auto;mix-blend-mode:normal;color-interpolation:sRGB;color-interpolation-filters:linearRGB;solid-color:#000000;solid-opacity:1;vector-effect:none;fill:#7368e5;fill-opacity:1;fill-rule:nonzero;stroke:none;stroke-width:2.91042;stroke-linecap:butt;stroke-linejoin:round;stroke-miterlimit:4;stroke-dasharray:none;stroke-dashoffset:0;stroke-opacity:1;color-rendering:auto;image-rendering:auto;shape-rendering:auto;text-rendering:auto;enable-background:accumulate;stop-color:#000000;stop-opacity:1"
           d="m 40.336382,38.55357 c 4.338057,0 7.830427,4.720166 7.830427,10.583333 V 204.17683 c 0,5.86316 -3.49237,10.58333 -7.830427,10.58333 -4.338057,0 -7.830427,-4.72017 -7.830427,-10.58333 V 49.136903 c 0,-5.863167 3.49237,-10.583333 7.830427,-10.583333 z"
           id="path1007" />
        <path
           style="color:#000000;font-style:normal;font-variant:normal;font-weight:normal;font-stretch:normal;font-size:medium;line-height:normal;font-family:sans-serif;font-variant-ligatures:normal;font-variant-position:normal;font-variant-caps:normal;font-variant-numeric:normal;font-variant-alternates:normal;font-variant-east-asian:normal;font-feature-settings:normal;font-variation-settings:normal;text-indent:0;text-align:start;text-decoration:none;text-decoration-line:none;text-decoration-style:solid;text-decoration-color:#000000;letter-spacing:normal;word-spacing:normal;text-transform:none;writing-mode:lr-tb;direction:ltr;text-orientation:mixed;dominant-baseline:auto;baseline-shift:baseline;text-anchor:start;white-space:normal;shape-padding:0;shape-margin:0;inline-size:0;clip-rule:nonzero;display:inline;overflow:visible;visibility:visible;isolation:auto;mix-blend-mode:normal;color-interpolation:sRGB;color-interpolation-filters:linearRGB;solid-color:#000000;solid-opacity:1;vector-effect:none;fill:#7368e5;fill-opacity:1;fill-rule:nonzero;stroke:none;stroke-width:2.91042;stroke-linecap:butt;stroke-linejoin:round;stroke-miterlimit:4;stroke-dasharray:none;stroke-dashoffset:0;stroke-opacity:1;color-rendering:auto;image-rendering:auto;shape-rendering:auto;text-rendering:auto;enable-background:accumulate;stop-color:#000000;stop-opacity:1"
           d="m 40.335938,37.097656 c -2.696825,0 -5.084183,1.484928 -6.710938,3.683594 -1.626755,2.198666 -2.574219,5.134955 -2.574219,8.355469 V 204.17773 c 0,3.22051 0.947464,6.15681 2.574219,8.35547 1.626755,2.19867 4.014112,3.68164 6.710938,3.68164 2.696825,0 5.086135,-1.48297 6.71289,-3.68164 1.626755,-2.19866 2.572266,-5.13496 2.572266,-8.35547 V 49.136719 c 0,-3.220514 -0.945511,-6.156803 -2.572266,-8.355469 -1.626755,-2.198666 -4.016066,-3.683594 -6.71289,-3.683594 z m 0,2.910156 c 1.641232,0 3.169102,0.876698 4.373046,2.503907 1.203944,1.627208 2.001954,3.982346 2.001954,6.625 V 204.17773 c 0,2.64265 -0.79801,4.99584 -2.001954,6.62305 -1.203944,1.62721 -2.731815,2.50391 -4.373046,2.50391 -1.641232,0 -3.16715,-0.8767 -4.371094,-2.50391 -1.203944,-1.62721 -2.003906,-3.9804 -2.003906,-6.62305 V 49.136719 c 0,-2.642654 0.799962,-4.997792 2.003906,-6.625 1.203944,-1.627209 2.729861,-2.503906 4.371094,-2.503907 z"
           id="path1009" />
      </g>
    </g>
  </g>
</svg>
