<?xml version="1.0" encoding="UTF-8"?>
<svg width="367.11" height="409.37" version="1.1" viewBox="0 0 367.11 409.37" xmlns="http://www.w3.org/2000/svg" xmlns:cc="http://creativecommons.org/ns#" xmlns:dc="http://purl.org/dc/elements/1.1/" xmlns:rdf="http://www.w3.org/1999/02/22-rdf-syntax-ns#">
 <metadata>
  <rdf:RDF>
   <cc:Work rdf:about="">
    <dc:format>image/svg+xml</dc:format>
    <dc:type rdf:resource="http://purl.org/dc/dcmitype/StillImage"/>
    <dc:title/>
   </cc:Work>
  </rdf:RDF>
 </metadata>
 <g transform="translate(-58.621 11.196)">
  <path d="m250.41 385.96c-2.3878-2.2232-2.7153-3.5549-1.8277-7.4309 1.3233-5.7787 0.94488-6.0692-11.253-8.6388l-11.035-2.3247-3.0339-5.5268c-4.0501-7.3781-6.9807-20.506-6.069-27.186 0.54451-3.9894 1.784-7.0299 5.12-12.559 2.4209-4.0126 5.4472-10.47 6.7253-14.35l2.3237-7.0545-8.2605-29.687-5.4487-3.475c-12.157-7.753-17.053-15.724-14.987-24.397 1.9842-8.3287 8.072-12.728 18.937-13.684 2.7431-0.24144 5.1266-1.023 5.2967-1.7368 0.30875-1.296-1.1348-4.3367-13.694-28.846-3.6691-7.1601-10.084-19.755-14.256-27.989-4.1717-8.2335-8.9297-16.407-10.573-18.163-6.7527-7.2149-18.841-12.696-47.45-21.514-23.216-7.1559-33.151-11.762-35.967-16.677-2.3661-4.1295-2.9763-19.265-1.0231-25.377 1.9412-6.0747 4.9528-8.8708 11.638-10.806 4.5879-1.3277 5.7038-1.2109 19.218 2.012 7.8912 1.882 14.42 3.1177 14.509 2.7462 0.33535-1.4076-9.8895-24.924-12.342-28.385-4.4929-6.3417-9.4361-10.267-22.403-17.79-26.672-15.475-42.628-28.349-52.626-42.462-5.3197-7.5088-7.4607-7.7737 53.706 6.6457 66.51 15.679 74.867 17.778 75.611 18.987 0.31318 0.50905-0.81995 2.9695-2.518 5.4677-1.6981 2.4982-4.0704 6.4276-5.2717 8.732-2.1699 4.1625-2.1653 4.2329 0.70349 10.783 1.5882 3.6262 4.5827 9.6267 6.6544 13.335 5.5767 9.981 6.2794 14.161 4.3588 25.927-2.3886 14.633-1.3115 17.177 8.0937 19.122 3.3152 0.68542 14.824 4.2552 25.576 7.9328 10.752 3.6776 25.78 8.6835 33.397 11.124 20.924 6.7044 31.093 10.329 35.143 12.525 4.6808 2.5384 9.5068 9.5396 9.9196 14.391 0.41837 4.9159-2.9244 14.748-6.7025 19.714-4.9051 6.4476-7.1026 6.5561-29.211 1.4414-13.47-3.1162-19.146-4.0838-19.607-3.3423-0.35637 0.57399 2.559 6.7608 6.4786 13.749 3.9196 6.9877 11.021 19.907 15.78 28.71 4.7594 8.8029 9.899 17.763 11.421 19.912 3.1306 4.4188 8.845 7.905 19.826 12.095 22.955 8.7594 35.841 17.87 36.539 25.831 0.33563 3.83-2.2812 9.8131-5.7072 13.049-1.8896 1.7848-2.0918 2.3872-1.246 3.7122 0.55533 0.86989 10.241 9.4346 21.524 19.033 16.142 13.732 21.338 18.739 24.378 23.495l3.8636 6.044 2.3863-2.77c1.5818-1.8361 2.4412-3.9034 2.5492-6.1319 0.19282-3.9785 3.8988-11.635 6.5578-13.548 1.5593-1.1219 3.5591-0.95107 11.772 1.0056 11.835 2.8195 11.836 2.8204 15.187 17.496 3.2228 14.115 3.0246 22.039-0.89998 35.978-3.5697 12.678-7.6674 19.878-13.703 24.076-3.3234 2.3115-3.649 2.3174-16.221 0.29338l-12.829-2.0654-3.9213 4.5054c-2.1567 2.478-5.1837 4.9607-6.7266 5.5172-1.6808 0.60626-7.4807 0.46956-14.47-0.34106-22.347-2.5918-26.946-4.542-32.08-13.604l-3.4001-6.0014-5.1813-0.30995c-5.1066-0.30549-5.232-0.23882-8.6891 4.6188-4.5123 6.3403-8.5472 9.8316-12.495 10.812-3.3562 0.83333-26.129-1.6259-35.037-3.7836-2.94-0.71213-6.1027-1.9999-7.0282-2.8616zm94.428-48.08c7.7077 0.95358 9.2373 0.4563 7.0017-2.2764-1.325-1.6196-4.0546-2.4378-16.324-4.8933-16.875-3.3773-18.629-3.4145-17.829-0.37852 0.48587 1.8448 1.6906 2.3499 10.497 4.4013 5.4717 1.2746 12.966 2.6906 16.654 3.1469zm14.007-10.315c1.5592-0.86699 10.793 1.4486 13.724 3.4416 3.2939 2.2399 5.3219 0.99032 3.5716-2.2007-0.70584-1.2868-10.161-10.001-21.011-19.364-21.485-18.541-22.729-19.529-23.024-18.288-0.51223 2.1501 8.1628 20.867 13.075 28.21 5.0432 7.539 5.7776 8.2329 9.0146 8.5173 1.9383 0.1703 4.0308 0.028 4.6499-0.31627zm-86.02-28.194c1.6073-2.065 1.5554-2.5486-0.56563-5.2696-3.7256-4.7795-7.4272-4.6648-7.3458 0.22755 0.033 1.9815 3.3392 6.2868 5.4125 7.048 0.40109 0.14725 1.5256-0.75542 2.499-2.0059zm-36.46-10.36c0.60939-1.127 1.5918-4.0532 2.183-6.5026l1.075-4.4536-4.2104-2.0799c-3.2345-1.5979-4.3849-1.825-4.9632-0.98026-0.83555 1.2206 2.8177 15.591 4.0374 15.882 0.42353 0.10092 1.2686-0.73859 1.878-1.8656zm93.019 15.478c-4.9142-13.795-5.4786-14.926-7.7128-15.458-1.2618-0.30061-2.3722-0.21817-2.4676 0.18314-0.24913 1.0488 9.4662 17.932 10.454 18.167 0.45458 0.10829 0.33134-1.1932-0.27394-2.8922zm-92.833-65.322c6.5406-0.16181 16.394 0.22633 21.896 0.86253l10.004 1.1568 1.2348 2.859 1.2348 2.859 7.4036-0.28385c4.072-0.15612 7.8327-0.52868 8.357-0.82794 1.8308-1.0448-3.4887-5.2149-9.0275-7.0769-3.0708-1.0323-9.0992-2.18-13.397-2.5504s-11.43-1.0265-15.85-1.4579c-12.351-1.2055-21.978-1.4898-26.336-0.77797-4.3215 0.70587-4.2504 0.64737-3.9085 3.2119 0.29297 2.1975 2.3393 2.4229 18.389 2.0259zm38.669-11.317c0.22814-0.99646-4.9319-6.5719-6.4072-6.9234-1.2772-0.30427-4.0506 3.16-3.6286 4.5325 0.14067 0.45755 2.4187 1.3472 5.0622 1.977 2.6436 0.62978 4.8817 0.81603 4.9736 0.41389zm-26.79-38.98c7.2077-0.18919 8.4733-1.0172 5.0623-3.312-1.489-1.0018-3.9186-2.636-5.3992-3.6316-3.6113-2.4285-4.2293-5.0689-1.7099-7.3051 2.5152-2.2325 2.0698-3.4449-2.115-5.7571-6.8028-3.7587-11.809-3.1356-12.939 1.6106-0.41799 1.7546 0.20025 2.6403 2.874 4.1176 1.8736 1.0352 3.9283 2.009 4.5661 2.1641 2.1872 0.53185 3.1122 4.9294 1.7332 8.2393-1.5576 3.7386-0.81037 4.1037 7.9279 3.8744zm-13.594-29.505c2.6663-0.51867 4.625-1.4729 4.5591-2.221-0.15835-1.7974-8.1854-6.1451-11.277-6.1078-1.3834 0.0166-3.2995 1.0378-4.258 2.2693-1.4898 1.9141-1.5211 2.4993-0.2152 4.0323 2.0955 2.46 5.6531 3.1045 11.191 2.0272zm36.154-3.217c0.35688-2.0647 1.2948-4.2391 2.0842-4.832 2.5029-1.8799 0.21689-3.6453-7.8608-6.0707-7.3265-2.1999-7.769-2.2099-10.956-0.24951-3.0449 1.8732-3.2076 2.1758-1.9578 3.643 0.74962 0.88003 3.5486 2.4371 6.2198 3.4602 3.0914 1.184 5.6915 2.9871 7.1528 4.9605 2.9747 4.017 4.511 3.7536 5.3173-0.91146zm-44.774-11.933c2.0636-0.49695 4.0112-1.3403 4.328-1.8742 0.88192-1.4859-3.3852-4.3246-8.239-5.4809-3.6684-0.87392-4.6111-0.70482-5.997 1.0757-0.90441 1.162-1.5448 2.8598-1.423 3.7729 0.30305 2.2733 6.5556 3.6563 11.331 2.5064zm-9.7634-13.933c2.1185-0.0785 4.2269-0.51624 4.6853-0.9728 0.45842-0.45655-0.32113-2.9394-1.7324-5.5175-2.8148-5.1422-2.8856-5.8143-0.75098-7.1275 2.1141-1.3006 3.9024-0.59393 9.2074 3.6386 4.562 3.6398 5.4095 3.9425 21.315 7.6154 11.323 2.6145 19.066 4.9308 24.47 7.3196 21.121 9.337 23.577 10.299 24.637 9.6468 1.7399-1.0704-3.1668-6.8794-8.4187-9.9666-2.5802-1.5167-7.0523-3.5266-9.9381-4.4663-2.8858-0.9397-13.049-4.2535-22.586-7.3639-9.5365-3.1105-21.952-6.7543-27.59-8.0975-5.6381-1.3432-14.818-4.2129-20.4-6.3771-5.5818-2.1642-19.785-7.174-31.564-11.133-11.778-3.9589-24.803-8.4608-28.943-10.004-10.058-3.7487-23.308-6.7055-27.779-6.1986-5.3994 0.61216-6.7073 2.3805-5.4092 7.3138 0.90795 3.4504 1.6378 4.2838 4.6025 5.2558 1.9379 0.63529 6.6283 0.95083 10.423 0.70115 14.349-0.94408 36.244 4.8978 53.695 14.326 8.4157 4.547 11.237 6.885 19.156 15.872 4.1467 4.7065 6.6249 5.7682 12.92 5.535z" fill="#a29f9d"/>
  <path d="m251.32 385.2c-1.6443-1.1641-1.8015-2.1471-0.92883-5.81 1.7616-7.3946 0.30884-8.6785-12.47-11.02l-10.654-1.9523-2.4443-4.063c-1.3444-2.2346-2.4004-5.3342-2.3468-6.8881 0.0537-1.5538-0.22749-3.1515-0.62481-3.5505-1.2633-1.2685 1.5512-10.749 3.7776-12.725 1.9098-1.6951 2.0462-2.2955 1.6551-7.2873-0.23443-2.992-0.82894-6.5899-1.3212-7.9953-0.49222-1.4054-0.4923-2.9562-1.8e-4 -3.4463 0.49213-0.49011 1.5629-3.1132 2.3795-5.829 3.3877-11.267 6.326-20.015 6.9223-20.608 1.2252-1.2202 6.0108-14.319 5.8801-16.095-0.0889-1.208-1.9716-2.6664-5.766-4.4666-4.8856-2.3179-5.8562-3.2441-7.3071-6.9734-1.8152-4.6656-3.2887-5.3647-4.566-2.1665-0.90063 2.255-3.0473 2.1232-6.7818-0.41639-2.0451-1.3907-2.1673-1.9447-0.97392-4.4148 1.1381-2.3556 1.0539-2.9901-0.50698-3.822-1.0892-0.58049-1.995-2.4476-2.1669-4.4664-0.16236-1.9079-0.87257-3.8642-1.5782-4.3473-0.79676-0.54541-0.96288-2.2221-0.43833-4.424l0.84471-3.5457 4.0293 1.6221c2.8569 1.1501 6.0963 1.4861 11.133 1.1547 9.8729-0.64958 30.623 0.14039 35.746 1.3608 3.6773 0.87607 4.2314 1.3245 4.0496 3.2777-0.22278 2.3945 2.0665 3.3352 7.1938 2.9561 2.2996-0.17005 2.3554-0.0499 0.79396 1.7115-2.3044 2.5996-1.6043 3.2187 3.5506 3.1401 3.3506-0.0511 4.6401 0.28582 5.3224 1.3906 1.1162 1.8072 0.31204 2.5416-5.8648 5.3561-2.6955 1.2283-5.0629 2.913-5.2609 3.7438-0.42035 1.7644 5.9643 13.953 17.246 32.922 8.2342 13.846 9.9421 15.454 14.708 13.851 1.8416-0.61925 2.5609 0.0287 5.4898 4.9453 2.0555 3.4504 3.159 6.5457 2.8284 7.9334-0.29815 1.2515-0.0153 2.9769 0.62857 3.8341 0.64386 0.85724 1.0551 2.0527 0.91386 2.6566-0.14078 0.60397 0.73435 2.8325 1.9458 4.9524l2.2026 3.8545 11.027 2.0827c6.0649 1.1455 13.728 2.3978 17.028 2.7829l6.0011 0.70023 1.3734-4.4654c1.1797-3.8355 1.08-4.9042-0.70678-7.5772-1.9444-2.9088-1.9476-3.121-0.049-3.2516 1.1172-0.0768 3.4941-0.45493 5.282-0.84021 2.5851-0.55705 4.2971-0.23191 8.3597 1.5876 6.3505 2.8443 10.386 3.7346 12.406 2.7368 1.1589-0.57251 1.8974-0.29754 2.8955 1.0781 2.6313 3.6269 3.6319 4.1522 3.46 1.8166-0.0879-1.1943 0.75532-3.2486 1.8737-4.5653 1.1184-1.3166 3.0187-5.6314 4.2227-9.5882 3.4496-11.337 3.6666-11.456 15.617-8.6094l10.051 2.3944 1.6882 4.6145c0.92853 2.538 1.894 6.5614 2.1456 8.941 0.25153 2.3796 0.90385 5.1497 1.4496 6.1559 3.3802 6.2319-0.78386 32.441-6.7489 42.478-3.3338 5.6097-7.7765 10.283-10.444 10.985-1.0339 0.27231-7.4437-0.30108-14.244-1.2742-6.8002-0.97311-12.443-1.7068-12.54-1.6304-0.0968 0.0763-1.8703 2.1532-3.9412 4.6151-2.3386 2.7801-5.0078 4.7847-7.0442 5.2904-4.0211 0.99844-16.819-0.32848-28.58-2.9631-10.35-2.3185-13.488-4.5259-16.107-11.328l-1.7184-4.4633-12.646-2.5152-3.7214 5.2813c-4.7236 6.7036-9.3164 10.486-13.558 11.166-3.1745 0.50906-29.839-2.415-35.437-3.8862-1.4605-0.38382-3.5461-1.3283-4.6347-2.099zm77.281-19.103c0.45094-1.8928 3.9296-2.6373 7.9017-1.691 6.9032 1.6446 12.644 1.7501 13.004 0.23895 0.30181-1.2668-1.6358-1.8641-14.125-4.3543-15.581-3.1065-20.427-3.1714-20.557-0.27523-0.0627 1.4022 1.0367 2.087 5.2124 3.2463 3.4427 0.95584 5.4959 2.0498 5.8758 3.1305 0.66795 1.9004 2.2058 1.7315 2.6886-0.29522zm-26.744-46.004c-0.44499-0.72331-1.7829-1.3923-2.9731-1.4866-2.0651-0.16368-2.1154-0.0499-1.1008 2.49 0.97065 2.4296 1.2297 2.5592 2.9731 1.4866 1.3803-0.84914 1.6855-1.5396 1.1007-2.49zm-38.242-19.349c0.86268-0.53073 2.0303-0.23745 3.7732 0.94773 2.122 1.443 3.043 1.4951 5.7842 0.32723 1.7932-0.764 4.7731-1.1294 6.6221-0.81205 4.5921 0.78822 5.3573 0.0439 4.2463-4.1304-0.78479-2.9486-1.5764-3.7646-4.5031-4.6415-1.953-0.58519-5.5314-2.0877-7.952-3.3389-3.625-1.8737-4.8352-2.1203-6.8627-1.3985-1.3539 0.48203-4.8086 0.56293-7.6771 0.17978l-5.2154-0.69661 1.1648 5.7164 1.1647 5.7164 2.8334-1.022c3.2401-1.1687 5.934 0.10239 4.5383 2.1413-1.0586 1.5464 0.21136 2.1627 2.0834 1.011zm16.574-11.911c0.0592-0.2487-0.75219-1.2116-1.8032-2.1399-1.7327-1.5303-1.8224-1.5071-0.96139 0.2488 0.88406 1.803 2.5191 2.9214 2.7646 1.8911zm-28.999-16.37c0.32826-0.19927-0.68015-2.2486-2.2409-4.5541-4.4772-6.6136-7.8563-6.2847-6.3766 0.62066 0.79447 3.7075 1.0582 3.9526 4.4327 4.1189 1.9734 0.0973 3.8565 0.0138 4.1848-0.18544zm10.367-1.1307c0.10585-1.2026-0.31161-2.497-0.92766-2.8764-1.6254-1.001-3.3885 2.0505-2.0051 3.4702 1.8635 1.9123 2.7276 1.7374 2.9327-0.5938zm-5.2045-7.5803c0.50021-2.0996-2.0781-5.286-4.8024-5.935-1.3956-0.33247-1.6435 1.9506-0.51981 4.7874 1.3626 3.4401 4.6093 4.1402 5.3222 1.1477zm118.33 59.322c-1.7242-2.4136-1.7206-2.4665 0.0686-1.0061 1.0387 0.8478 2.0538 2.041 2.256 2.6515 0.58766 1.7751-0.36038 1.1041-2.3245-1.6453zm-55.161-16.432c-0.30636-1.3407-1.2562-4.8015-2.1106-7.6907-0.8545-2.8892-1.119-5.1495-0.58782-5.023 1.6393 0.39053 7.5596 12.187 7.095 14.137-0.61472 2.5803-3.7107 1.5778-4.3966-1.4236zm19.409-14.129c-2.1005-1.8628-3.4686-3.3243-3.0403-3.2478 1.0471 0.18696 7.5765 5.782 7.4359 6.3719-0.15353 0.64446-0.11708 0.67039-4.3957-3.124zm-16.115-10.041c-1.4072-2.3918-3.6414-5.2912-4.9649-6.4432-2.14-1.8626-2.7036-1.9872-5.0926-1.1255-3.9503 1.4248-5.2435 0.75999-7.2306-3.7171-1.4653-3.3013-2.2543-4.0238-4.3663-3.9984-2.996 0.0361-6.5432-4.4212-5.8464-7.3462 0.6749-2.8329 3.974-1.2952 6.4256 2.995 1.6924 2.9617 2.306 3.469 2.62 2.1662 0.33456-1.3871 1.2862-1.4925 5.1551-0.57084 2.6098 0.62174 6.1424 2.1485 7.8503 3.3928 2.6611 1.9388 3.6135 2.1824 6.6587 1.7031 6.4937-1.0221 9.6028 3.3327 5.6528 7.9178-2.0692 2.4019-2.0498 2.5009 1.2547 6.4017 3.0514 3.6021 3.1398 3.9117 0.97282 3.4082-1.3111-0.30412-3.3166-0.527-4.4571-0.49425-1.4684 0.0422-2.8202-1.2096-4.6321-4.2892zm-23.544-27.723c-2.6743-3.3727-2.1049-6.6225 1.0295-5.8758 3.3514 0.79842 5.255 3.5536 4.2318 6.1252-1.195 3.0033-2.7402 2.9301-5.2613-0.2494zm-70.919-29.661c-3.8156-7.2925-5.8844-13.301-5.3508-15.541 0.26284-1.1033 2.2884-5.532 4.5013-9.8416l4.0234-7.8356 14.314-0.54124c8.1296-0.30739 15.097-0.0708 16.125 0.54752 0.99625 0.5988 2.623 2.9173 3.6149 5.1521 0.99196 2.2349 2.8581 5.7838 4.147 7.8866 1.2889 2.1028 4.4574 8.1258 7.0412 13.385 2.5837 5.2588 6.1138 11.36 7.8447 13.558 1.7309 2.1979 2.9007 4.1478 2.5996 4.333-0.30108 0.18522-2.4818-0.44194-4.8459-1.3937-3.8666-1.5566-4.1911-1.937-3.2292-3.7857 1.8412-3.5386-1.4199-8.252-7.0399-10.175-4.7537-1.6265-4.7642-1.624-10.165 2.3961-6.2586 4.6586-6.254 6.7204 0.0128 5.6969 2.551-0.41666 5.1415-0.13804 7.1848 0.77276 4.3698 1.9479 2.9288 2.8652-3.3869 2.1561-2.8904-0.32449-8.6879-0.7445-12.883-0.93334-4.1954-0.18884-10.856-0.49008-14.802-0.66943l-7.1735-0.32611zm63.056 14.471-1.7464-1.2995 1.9583 0.40999c1.0771 0.22553 2.5138 0.99078 3.1928 1.7006 1.0974 1.1472 1.0738 1.246-0.21191 0.88951-0.79554-0.22057-2.2323-0.98588-3.1928-1.7006zm-68.717-63.23c0.20183-0.84712 0.84547-1.2431 1.4304-0.87997 1.6605 1.031 1.4608 3.1964-0.25709 2.7871-0.84713-0.20183-1.3751-1.06-1.1733-1.9072zm-16.368-30.541c0.1912-0.80253 0.78537-1.3549 1.3204-1.2274 0.53502 0.1275 0.81635 0.88837 0.62515 1.6909s-0.78537 1.3549-1.3204 1.2274c-0.53503-0.1275-0.81635-0.88837-0.62516-1.6909zm-50.489-12.799c-0.0112-0.14401 0.41408-2.6019 0.94487-5.4619 1.0568-5.6944 2.8062-6.2274 3.0977-0.94389 0.0922 1.672 0.35693 3.8447 0.58822 4.8282 0.2313 0.98357 0.0911 1.991-0.31161 2.2387-0.70027 0.43081-4.2771-0.11672-4.3192-0.66115zm-20.5-6.3775c-5.3538-1.806-6.6203-2.7323-5.0536-3.6961 1.5229-0.93688 13.497 3.6596 14.722 5.6515 0.7881 1.281-1.365 0.84558-9.6685-1.9554zm62.576 11.338c0.14984-0.62896-1.706-4.1979-4.1241-7.931-4.7404-7.3182-6.9345-13.679-5.1064-14.804 1.8722-1.1518 5.6716 2.2056 10.024 8.8581 4.1576 6.3543 4.432 8.4399 1.7604 13.381-1.152 2.1304-3.0304 2.4951-2.5542 0.496zm-73.821-22.328c-1.4151-1.8374-1.5365-2.9015-0.54795-4.8014 1.5823-3.041 2.4021-2.8504 6.4803 1.507 3.5922 3.838 3.8234 4.9013 1.0933 5.0273-1.0004 0.0462-2.5814 0.20628-3.5133 0.35585-0.9726 0.15611-2.4688-0.73362-3.5123-2.0887zm105.81 18.483c-1.0532-0.96307-2.6601-3.7134-3.571-6.1118l-1.6562-4.3608 2.1544 1.2705c1.1849 0.69877 4.3963 2.0546 7.1363 3.013 5.4584 1.9092 5.9476 3.4222 2.186 6.761-2.2996 2.0411-3.5136 1.93-6.2494-0.57187zm-117.09-33.496c-0.0754-1.0243-1.0928-4.5775-2.2609-7.8961-1.1681-3.3185-1.7712-6.3849-1.3402-6.8142 0.43102-0.42926 2.1259 1.6058 3.7664 4.5223 1.6405 2.9165 3.8948 5.8431 5.0097 6.5034 2.4549 1.4541 2.1828 3.276-0.72773 4.8724-2.796 1.5336-4.276 1.1383-4.4472-1.1878zm48.508-11.772c-4.521-2.0215-7.2289-3.82-7.7676-5.1591-0.4548-1.1306-1.9218-3.9356-3.26-6.2333-1.3382-2.2977-4.2443-8.3324-6.458-13.41-6.0792-13.945-11.103-19.147-27.51-28.483-13.973-7.951-26.232-16.207-33.824-22.781-5.6672-4.9067-6.7905-6.422-7.296-9.8426-0.32866-2.2237-1.4768-4.9739-2.5514-6.1116-2.4285-2.5711-2.9053-2.6934-3.3427-0.85745-0.49334 2.0708-3.0466 1.1835-5.8603-2.0365-3.0346-3.4729-1.3919-4.8688 2.968-2.5219 1.8126 0.97571 11.326 3.2377 23.222 5.5217 25.745 4.9428 28.22 5.9861 42.972 18.114 6.3826 5.2476 12.628 9.7895 13.879 10.093 4.1261 1.0013 19.532 26.579 18.533 30.77-0.48671 2.043 2.3793 3.013 13.939 4.718 6.2828 0.92664 11.763 2.026 12.178 2.443 0.41532 0.41702 1.4323 2.9771 2.26 5.6891 1.7141 5.6165 0.82988 13.938-2.1785 20.502l-1.9115 4.1705-0.7491-4.6295c-0.60243-3.7232-1.1529-4.6207-2.8118-4.5843-1.3374 0.0293-2.496-0.85048-3.2951-2.5019-1.1266-2.3285-1.3242-2.4143-2.302-1.0006-1.5265 2.2069-1.2657 6.6351 0.4144 7.0353 1.4261 0.33974 2.0811 5.223 0.80582 6.0075-1.5258 0.93868-13.564-2.0098-20.055-4.9119zm13.655-40.183c-1.4117-0.95882-11.551-14.714-13.013-17.653-0.47784-0.96083-0.58861-2.9231-0.24615-4.3606 0.34245-1.4375 0.32754-4.4204-0.0331-6.6286-0.46557-2.8504-0.28215-4.2449 0.63233-4.8075 1.4664-0.90213 21.246 3.4302 22.127 4.8463 0.31107 0.50038-0.56411 1.6797-1.9449 2.6206-8.1477 5.5525-8.471 9.6177-1.768 22.232 1.3039 2.4537 2.011 4.8195 1.5714 5.2573-0.85764 0.85411-5.1492-0.02839-7.3253-1.5063z" fill="#ccc"/>
  <path d="m254.89 386.1c-4.4833-2.0102-5.5128-3.2396-4.7333-5.6523 1.298-4.0176 1.2412-5.5434-0.29985-8.0483-1.3831-2.2481-2.2722-2.6269-7.8382-3.3386-6.6664-0.85255-7.897-1.7982-5.2613-4.0433 3.0434-2.5924 9.5155-2.7802 21.728-0.63045 6.5487 1.1528 12.97 1.8072 14.27 1.4542 2.9458-0.79992 3.4844 1.3004 1.4841 5.7876-0.9226 2.0697-0.9684 3.2372-0.14793 3.7704 1.0978 0.71339 16.005 3.3038 24.762 4.3027 2.8142 0.32101 3.6692 0.77966 3.4181 1.8335-0.60619 2.5446-6.0262 8.1294-8.8929 9.1633-4.2587 1.5361-32.271-1.8108-38.489-4.5986zm76.819 4.9286c-4.484-2.0237-7.3547-5.1769-9.0411-9.9308-1.3489-3.8025-1.5147-3.9157-8.0362-5.4818l-6.6589-1.5991 2.1397-5.9152c1.1768-3.2533 2.3577-6.0601 2.624-6.2373 0.26638-0.17717 3.1936 0.38244 6.505 1.2438 4.4405 1.1549 6.2341 2.0743 6.8339 3.5027 0.73935 1.761 0.95025 1.7351 2.3241-0.28522 1.7311-2.5456 3.7014-3.0085 8.2218-1.9316 6.4164 1.5286 12.506 1.6929 12.827 0.34608 0.24675-1.0357-1.8733-1.844-9.6595-3.6828-13.342-3.1508-22.235-3.891-24.961-2.0777-1.6929 1.1259-4.6395 1.1084-13.538-0.0807-6.2556-0.83588-13.121-1.936-15.256-2.4448-4.7071-1.1214-6.535-0.14821-7.5247 4.0062-0.4131 1.734-1.3082 3.3372-1.989 3.5626-1.1597 0.38391-0.76824-0.89289 2.81-9.1659 3.4472-7.9701 3.7501-9.0962 2.7738-10.31-1.153-1.4333-25.755-5.1961-30.801-4.7109-1.5888 0.15274-3.0085-0.0841-3.1549-0.52639-0.14641-0.44226 0.33162-3.7305 1.0623-7.3072 1.4308-7.004 1.2013-9.3961-0.83688-8.7214-2.3549 0.77962-3.595-2.4635-2.5765-6.7385 1.2408-5.2082 3.4723-6.5609 6.9075-4.1871 3.7513 2.5922 28.275 8.0419 30.622 6.8047 3.0917-1.6302 4.6485-13.677 2.7905-21.593-1.2555-5.3496-2.0977-6.7755-5.4903-9.2953-2.204-1.637-5.084-4.4303-6.4-6.2074-2.3811-3.2154-2.4514-3.2415-14.517-5.3904-8.5882-1.5296-12.05-2.4717-11.869-3.2301 0.14026-0.58891 0.9117-0.91431 1.7142-0.72311 2.3409 0.55768 2.0701-1.1205-0.84469-5.2347-4.4842-6.3294-7.6985-5.6875-6.1317 1.2244 1.0062 4.4391 0.14468 7.5226-1.9616 7.0208-0.7225-0.17215-3.4788-1.3877-6.1251-2.7012-3.9298-1.9506-5.1143-3.1669-6.464-6.6377-1.7958-4.618-3.2716-5.3049-4.5453-2.1155-0.90061 2.255-3.0473 2.1232-6.7818-0.41639-2.0451-1.3908-2.1673-1.9447-0.97391-4.4148 1.1381-2.3556 1.0539-2.9901-0.50698-3.822-1.0892-0.58049-1.995-2.4476-2.1668-4.4664-0.16238-1.9079-0.87259-3.8642-1.5782-4.3473-0.79674-0.54542-0.96287-2.2221-0.43832-4.424l0.84471-3.5457 4.0293 1.6221c2.8569 1.1501 6.0963 1.4861 11.133 1.1547 9.8729-0.64956 30.623 0.1404 35.746 1.3609 3.6773 0.87607 4.2314 1.3245 4.0496 3.2777-0.22288 2.3945 2.0665 3.3352 7.1938 2.9561 2.2996-0.17005 2.3554-0.0499 0.79396 1.7115-2.3044 2.5996-1.6043 3.2187 3.5506 3.1401 3.3506-0.0511 4.6401 0.28582 5.3224 1.3906 1.1162 1.8072 0.31204 2.5416-5.8648 5.3562-2.6955 1.2282-5.0629 2.913-5.2608 3.7438-0.42035 1.7644 5.9643 13.953 17.246 32.922 8.1907 13.772 9.9534 15.45 14.593 13.89 1.6497-0.5547 2.4638 3e-3 4.604 3.1528 1.4299 2.1047 2.1724 3.7319 1.65 3.6161-3.1244-0.69254-3.8755 0.8503-2.7915 5.7347 1.5787 7.1141 0.719 7.7405-8.7096 6.3458-7.2858-1.0778-8.2542-1.4482-10.497-4.0146-1.3587-1.555-2.7632-2.6471-3.121-2.427-1.0268 0.63169-0.99529 10.975 0.0422 13.852 0.58615 1.6251 1.6018 2.5585 2.7069 2.4877 0.97282-0.0623 7.0842 0.87602 13.581 2.0852 6.4966 1.2092 12.174 1.9698 12.617 1.6904 0.44275-0.27946 1.1975-1.5058 1.6772-2.7252 0.84995-2.1604 1.1601-2.1576 12.14 0.11061 6.197 1.2802 14.196 2.6578 17.774 3.0614l6.5071 0.73366 1.3734-4.4653c1.1797-3.8356 1.08-4.9042-0.70679-7.5772-1.9444-2.9088-1.9476-3.121-0.049-3.2516 1.1172-0.0768 3.4941-0.45492 5.282-0.84021 2.5851-0.55705 4.2971-0.23191 8.3597 1.5876 6.3505 2.8443 10.386 3.7346 12.406 2.7368 1.1589-0.57252 1.8974-0.29756 2.8954 1.0781 2.6313 3.6269 3.6319 4.1523 3.46 1.8166-0.0879-1.1943 0.75534-3.2486 1.8738-4.5653 1.1184-1.3166 3.0186-5.6313 4.2227-9.5882 3.4534-11.349 3.6818-11.475 15.476-8.5247 7.9073 1.9781 9.085 2.4544 5.8272 2.357-2.2456-0.0672-5.998-0.55175-8.3388-1.0768l-4.2559-0.95469-0.17077 3.5234c-0.13935 2.875-0.59011 3.6644-2.4495 4.2897-2.7629 0.929-3.3427 2.8689-1.9262 6.4449 1.0541 2.6611 1.1932 2.7122 13.683 5.0276 12.345 2.2886 12.637 2.3937 13.507 4.8667 1.2023 3.4168 0.67737 17-0.91532 23.685-2.85 11.963-11.34 25.915-16.615 27.304-1.0689 0.28151-7.5073-0.28433-14.308-1.2574-6.8002-0.97311-12.443-1.7068-12.54-1.6304-0.0968 0.0763-1.8703 2.1532-3.9412 4.6151-2.3386 2.7801-5.0078 4.7847-7.0442 5.2904-5.1374 1.2756-29.689-2.0896-35.989-4.9328zm30.206-48.415c0.58582-2.459-1.4868-7.4991-3.2573-7.9208-1.7008-0.40518-1.8468-0.14392-1.395 2.4946 0.27762 1.621 0.78018 3.5911 1.1168 4.378 0.74322 1.7374 3.1978 2.4652 3.5354 1.0482zm-60.084-22.566c-0.44499-0.72332-1.7829-1.3923-2.9731-1.4866-2.0651-0.16368-2.1154-0.0499-1.1007 2.49 0.97064 2.4296 1.2297 2.5592 2.9731 1.4866 1.3803-0.84914 1.6855-1.5396 1.1008-2.49zm-40.3-48.761c0.10585-1.2026-0.31161-2.497-0.92766-2.8764-1.6254-1.0011-3.3885 2.0505-2.0051 3.4702 1.8635 1.9124 2.7276 1.7374 2.9327-0.59379zm-5.2045-7.5803c0.5002-2.0996-2.0781-5.286-4.8024-5.935-1.3956-0.33248-1.6435 1.9506-0.5199 4.7873 1.3626 3.4401 4.6093 4.1402 5.3222 1.1477zm-33.724 90.072c-1.6554-4.0864-0.0473-11.927 3.0012-14.633 1.9098-1.6951 2.0462-2.2955 1.6551-7.2873-0.23443-2.992-0.82134-6.5688-1.3042-7.9483-0.77447-2.2125-0.57245-2.8917 1.7131-5.7598 2.461-3.0883 2.852-3.205 7.7889-2.3248 4.5901 0.81838 5.4417 1.3232 7.2841 4.3179 2.5914 4.2124 3.9355 14.277 2.6353 19.734-1.5941 6.6915-9.9958 15.269-16.573 16.92-4.0947 1.0276-4.6764 0.74445-6.2008-3.0186zm152.06-30.75c-1.7242-2.4136-1.7206-2.4665 0.0686-1.0061 1.0387 0.84781 2.0538 2.041 2.256 2.6515 0.58768 1.7751-0.36038 1.1041-2.3245-1.6453zm-55.161-16.432c-0.30635-1.3407-1.2561-4.8015-2.1106-7.6907-0.8545-2.8892-1.119-5.1495-0.58783-5.023 1.6393 0.39054 7.5596 12.187 7.095 14.137-0.61471 2.5803-3.7107 1.5778-4.3966-1.4236zm19.41-14.129c-2.1005-1.8628-3.4686-3.3243-3.0403-3.2478 1.0471 0.18695 7.5765 5.782 7.4359 6.3719-0.15353 0.64445-0.11708 0.67037-4.3957-3.1241zm-16.115-10.041c-1.4072-2.3918-3.6414-5.2913-4.9648-6.4432-2.14-1.8626-2.7037-1.9872-5.0926-1.1255-3.9502 1.4248-5.2435 0.75999-7.2306-3.7171-1.4653-3.3013-2.2543-4.0238-4.3663-3.9984-2.9959 0.0361-6.5433-4.4212-5.8464-7.3462 0.67491-2.8329 3.9741-1.2952 6.4256 2.995 1.6924 2.9617 2.306 3.469 2.62 2.1662 0.33456-1.3871 1.2863-1.4926 5.1552-0.57085 2.6098 0.62175 6.1424 2.1485 7.8503 3.3929 2.6611 1.9388 3.6135 2.1824 6.6587 1.7031 6.4937-1.0221 9.6028 3.3327 5.6528 7.9178-2.0692 2.4019-2.0498 2.5009 1.2547 6.4017 3.0514 3.6021 3.1398 3.9117 0.97282 3.4082-1.3111-0.30412-3.3166-0.52701-4.4571-0.49425-1.4684 0.0422-2.8202-1.2096-4.6321-4.2892zm-23.544-27.723c-2.6743-3.3727-2.1049-6.6225 1.0295-5.8758 3.3514 0.79841 5.255 3.5536 4.2318 6.1252-1.195 3.0033-2.7402 2.9301-5.2613-0.2494zm-70.922-29.666c-3.8129-7.2872-5.8814-13.296-5.348-15.535 0.26286-1.1033 2.3073-5.5687 4.5432-9.9231l4.0653-7.9171 7.8201 0.0992c4.301 0.0546 10.542-0.20195 13.868-0.57002 3.366-0.37245 6.9993-0.17429 8.193 0.44686 1.1797 0.61383 3.6321 4.2576 5.4497 8.0972 1.8176 3.8396 3.5842 7.0477 3.9257 7.1291 0.68903 0.16417 5.6555 10.994 5.4456 11.874-0.0728 0.30562-1.4272-0.17372-3.0097-1.0658-3.2415-1.8267-6.9106-6.964-7.9729-11.163-0.53105-2.0992-1.9194-3.4031-5.5338-5.1971-2.6537-1.3172-5.2076-2.1284-5.6755-1.8027s-2.0173 2.4805-3.4431 4.7885l-2.5924 4.1963 2.87 6.6637c1.5785 3.665 3.7642 8.4058 4.8572 10.535l1.9872 3.8713 4.0678-0.66626c2.6216-0.42939 5.2039-0.15984 7.2633 0.75814 4.4969 2.0045 2.8312 2.9039-3.9046 2.1082-3.1534-0.37253-7.8055-0.71737-10.338-0.76643-12.763-0.24728-18.573-1.6375-12.126-2.9017 3.1735-0.62236 3.4818-1.6038 2.3421-7.4545-1.1-5.6472-2.2045-6.7211-5.2145-5.0702-5.9609 3.2696-9.3448 10.907-5.8617 13.23 1.9272 1.2854 1.9202 1.2992-0.59898 1.1858-2.0254-0.0912-3.0688-1.1081-5.0791-4.9501zm63.059 14.476-1.7464-1.2995 1.9583 0.41c1.077 0.22552 2.5138 0.99078 3.1928 1.7006 1.0973 1.1472 1.0738 1.246-0.21191 0.8895-0.79554-0.22057-2.2323-0.98588-3.1928-1.7006zm-10.843-5.38c-2.1177-0.85407-2.4159-1.399-1.5521-2.836 0.61525-1.0236 0.63216-2.9906 0.0398-4.6329-0.56619-1.5697-0.85311-2.9536-0.63759-3.0754 0.21553-0.12172 2.4561 2.7643 4.9792 6.4135 4.8586 7.0272 4.7491 7.1872-2.8293 4.1308zm-57.874-57.85c0.20183-0.84713 0.84547-1.2431 1.4304-0.87998 1.6605 1.031 1.4608 3.1964-0.2571 2.7871-0.84712-0.20183-1.3751-1.06-1.1733-1.9072zm-16.368-30.541c0.1912-0.80254 0.78537-1.3549 1.3204-1.2274 0.53502 0.1275 0.81635 0.88837 0.62516 1.6909-0.1912 0.80253-0.78538 1.3549-1.3204 1.2274-0.53502-0.1275-0.81635-0.88837-0.62516-1.6909zm-50.489-12.799c-0.0112-0.14401 0.41408-2.6019 0.94487-5.4619 1.0568-5.6944 2.8062-6.2274 3.0977-0.94389 0.0922 1.672 0.35694 3.8446 0.58822 4.8282 0.23129 0.98358 0.0911 1.991-0.31161 2.2387-0.70028 0.43081-4.2772-0.11672-4.3192-0.66115zm-20.5-6.3775c-5.3538-1.806-6.6203-2.7323-5.0536-3.6961 1.5229-0.93689 13.497 3.6596 14.722 5.6515 0.7881 1.281-1.365 0.84558-9.6685-1.9554zm62.576 11.338c0.14985-0.62896-1.706-4.1979-4.1241-7.931-4.7404-7.3182-6.9345-13.679-5.1064-14.804 1.8722-1.1518 5.6716 2.2056 10.024 8.8581 4.1576 6.3543 4.432 8.4398 1.7604 13.38-1.152 2.1304-3.0305 2.4952-2.5542 0.496zm-73.821-22.328c-1.4151-1.8374-1.5365-2.9015-0.54794-4.8014 1.5823-3.041 2.4021-2.8504 6.4803 1.507 3.5922 3.838 3.8234 4.9013 1.0933 5.0273-1.0004 0.0461-2.5814 0.20629-3.5133 0.35586-0.97259 0.1561-2.4688-0.73363-3.5123-2.0887zm105.81 18.483c-1.0532-0.96309-2.6601-3.7134-3.571-6.1118l-1.6562-4.3608 2.1544 1.2705c1.1849 0.69877 4.3962 2.0546 7.1362 3.013 5.4584 1.9092 5.9476 3.4222 2.186 6.761-2.2996 2.0411-3.5136 1.93-6.2494-0.57186zm-117.09-33.496c-0.0754-1.0243-1.0928-4.5775-2.2609-7.8961-1.1681-3.3186-1.7712-6.3849-1.3402-6.8142 0.43102-0.42926 2.1259 1.6058 3.7664 4.5223 1.6405 2.9165 3.8949 5.8431 5.0097 6.5034 2.4549 1.4541 2.1828 3.276-0.72771 4.8724-2.796 1.5336-4.276 1.1383-4.4472-1.1878zm48.508-11.772c-4.5211-2.0215-7.2289-3.82-7.7676-5.1591-0.45479-1.1306-1.9218-3.9356-3.26-6.2333-1.3382-2.2977-4.2443-8.3324-6.458-13.41-6.0792-13.945-11.103-19.147-27.51-28.483-13.973-7.951-26.232-16.207-33.824-22.781-5.6672-4.9067-6.7905-6.422-7.296-9.8426-0.32866-2.2237-1.4768-4.9739-2.5514-6.1116-2.4285-2.5711-2.9053-2.6934-3.3427-0.85746-0.49334 2.0708-3.0466 1.1835-5.8603-2.0365-3.0346-3.4729-1.3919-4.8688 2.968-2.5219 1.8126 0.97571 11.326 3.2377 23.222 5.5217 25.745 4.9428 28.22 5.9861 42.972 18.114 6.3826 5.2476 12.628 9.7895 13.879 10.093 4.1261 1.0013 19.532 26.579 18.533 30.77-0.48672 2.043 2.3792 3.013 13.939 4.718 6.2828 0.92664 11.763 2.026 12.178 2.443 0.41532 0.41702 1.4323 2.9771 2.26 5.6891 1.7142 5.6165 0.82989 13.938-2.1785 20.502l-1.9115 4.1705-0.74908-4.6295c-0.60245-3.7232-1.1529-4.6207-2.8118-4.5843-1.3374 0.0293-2.496-0.85048-3.2951-2.5019-1.1266-2.3285-1.3242-2.4143-2.302-1.0006-1.5265 2.2069-1.2657 6.6351 0.41441 7.0353 1.4261 0.33974 2.0811 5.223 0.80581 6.0075-1.5258 0.93867-13.564-2.0098-20.055-4.9119zm13.655-40.183c-1.4117-0.95882-11.551-14.714-13.013-17.653-0.47784-0.96083-0.5886-2.9231-0.24615-4.3606 0.34246-1.4375 0.32755-4.4204-0.0331-6.6286-0.46558-2.8504-0.28216-4.2449 0.63233-4.8075 1.4664-0.90213 21.246 3.4302 22.127 4.8463 0.31109 0.50039-0.5641 1.6797-1.9449 2.6206-8.1477 5.5525-8.471 9.6177-1.768 22.232 1.3039 2.4537 2.011 4.8195 1.5714 5.2573-0.85762 0.85411-5.1492-0.02839-7.3253-1.5063z" fill="#ffd42a"/>
  <path d="m253.03 387.85c-5.4745-2.1276-5.9694-2.991-4.72-8.2352 1.5873-6.6627 0.8543-7.2652-11.385-9.3575l-10.319-1.764-3.0029-4.3686c-8.7351-12.708-9.3932-31.75-1.4971-43.318 1.8493-2.7094 4.5484-8.0801 5.9979-11.935l2.6356-7.0088-2.2043-8.235c-6.0633-22.652-5.4926-21.527-13.412-26.44-20.848-12.936-18.296-34.964 4.3984-37.957 5.0956-0.67202 7.1449-1.3748 6.8355-2.3441-1.892-5.9284-36.522-71.018-39.373-74.004-6.8403-7.165-13.747-10.259-47.65-21.341-35.393-11.57-37.072-12.819-37.58-27.962-0.85842-25.615 16.116-33.676 44.158-20.97l3.7668 1.7068-3.3112-7.9342c-10.917-26.159-11.317-26.598-39.789-43.561-26.316-15.679-51.04-38.496-47.643-43.966 0.91296-1.4702 132.68 29.279 133.3 31.108 0.20267 0.59169-1.7288 4.3561-4.2921 8.3653-6.8607 10.731-6.9639 9.3194 1.9694 26.933 6.8848 13.574 7.4956 16.626 5.6673 28.314-1.0238 6.5451-1.1695 10.87-0.44665 13.257l1.0729 3.5434 10.963 3.3767c6.0296 1.8572 18.472 5.8386 27.649 8.8477l16.686 5.471-13.993-3.8302c-7.6963-2.1066-20.009-5.7648-27.361-8.1294-7.3522-2.3646-14.302-4.5829-15.444-4.9296-1.1422-0.34672-1.9707-0.83641-1.8412-1.0882 0.1295-0.25184 0.0489-2.8153-0.17917-5.6966-0.22805-2.8813 0.1499-8.749 0.83987-13.039 1.5707-9.767 0.13346-14.671-9.5403-32.55-4.755-8.7885-4.6516-9.3251 5.1092-26.512l1.1861-2.0885-60.804-13.948c-33.442-7.6714-62.345-14.278-64.227-14.682l-3.423-0.73429 4.0355 5.9239c7.4195 10.892 24.602 24.34 49.418 38.678 21.395 12.362 22.953 14.411 36.136 47.521l1.6079 4.0384 6.8761 1.3424c4.4074 0.86042 9.5067 2.6944 14.203 5.1081l7.3268 3.7658-5.089-1.1379c-7.0112-1.5677-24.49-7.9417-24.907-9.0827-1.2476-3.4141-28.17-9.753-33.764-7.9497-1.5692 0.50592-1.3467 0.64534 1.1049 0.69217 1.6885 0.03225 2.6858 0.31646 2.2163 0.63146-0.46954 0.31505-2.3211 0.31986-4.1145 0.0107-2.0189-0.34803-3.2694-0.07435-3.2834 0.71858-0.0124 0.70438-0.37664 0.92524-0.80931 0.4908-3.4756-3.4899-9.4248 9.1439-9.5928 20.371-0.23288 15.565 0.43985 16.041 41.351 29.272 40.802 13.196 43.76 15.589 60.343 48.819 7.88 15.791 13.804 27.211 19.92 38.399 2.9956 5.4804 4.9654 10.257 4.5064 10.927-0.61914 0.90444 1.5777 1.1765 9.1248 1.1299 5.4672-0.0337 12.442 0.11591 15.5 0.33254 3.058 0.21661 8.0293 0.48859 11.047 0.60443 5.393 0.20698 13.816 1.7781 12.82 2.3911-0.27945 0.17193-8.2705-0.10412-17.758-0.61343-21.994-1.1807-37.402-1.1143-42.759 0.18439-4.9109 1.1907-5.7604 1.1327-4.3599-0.29753 0.6507-0.66456 0.28457-0.68839-1.0109-0.0658-12.488 6.0018-11.671 27.087 1.1696 30.168 1.2106 0.29046 2.8696 1.0936 3.6868 1.7846 0.81714 0.69103 2.8979 2.3006 4.624 3.5768 2.5726 1.9021 3.5385 3.9153 5.3584 11.168 1.221 4.8661 2.4498 8.9023 2.7306 8.9692 0.28077 0.0669-1.0753-5.9899-3.0134-13.46-3.9815-15.345-3.9695-15.193-1.1111-14.065 1.3269 0.52365 2.5638 2.5085 3.3597 5.3909 0.84002 3.0424 2.0942 4.9867 3.7649 5.8368 1.3779 0.70109 4.088 2.1199 6.0226 3.1529l3.5173 1.8782-1.9587 5.3751c-3.8946 10.688-4.5148 11.777-5.6529 9.9269-1.406-2.2854-5.1686-18.485-4.2421-18.264 0.40868 0.0974 1.6998 4.1612 2.8692 9.0307 2.1248 8.8482 2.1267 8.8513 3.0519 4.9675 0.5092-2.1374 1.506-5.147 2.2151-6.688 1.0248-2.227 0.94299-2.9902-0.39874-3.7201-10.468-5.6947-10.127-5.3668-11.25-10.792-0.59131-2.8561-1.2773-5.0685-1.5243-4.9165-0.24708 0.15201 0.94458 6.2327 2.6481 13.513 1.7035 7.28 2.6773 13.655 2.164 14.166-0.61088 0.60837-0.42267 0.76044 0.54477 0.44016 1.0822-0.35827 1.2-0.0831 0.43986 1.0273-0.69968 1.0221-0.61664 1.3771 0.25464 1.0886s0.95432 0.0665 0.25464 1.0886c-0.69969 1.0221-0.61664 1.3771 0.25464 1.0887 0.84421-0.27947 0.96758 0.0472 0.35552 0.94128-0.51555 0.75311-0.5142 2.4376 3e-3 3.7433 1.105 2.7898-3.6713 16.988-7.248 21.545-8.9442 11.396-8.7187 27.772 0.58088 42.187l2.1712 3.3656 10.253 1.6395c11.904 1.9035 11.899 1.9017 15.331 5.468 2.0507 2.1308 2.1678 2.4984 0.54283 1.7043-3.3739-1.6488-5.0709 6.8651-1.8656 9.36 2.9306 2.281 35.576 6.8718 40.382 5.6786 3.5219-0.87448 9.9231-6.6232 12.935-11.617 1.0726-1.7781 2.3917-3.531 2.9314-3.8953 0.53971-0.36436 0.93068-1.4277 0.86882-2.363-0.0999-1.5101-7e-3 -1.5005 0.83092 0.0856 0.69309 1.3123 2.4306 2.043 6.549 2.7544 5.5865 0.9649 5.6112 0.98361 7.2594 5.4887 3.1296 8.5541 10.741 11.841 33.078 14.287 9.9346 1.0876 12.697 0.22198 17.986-5.6364 4.1911-4.642 6.1655-4.7526 22.046-1.2342 19.711 4.3671 34.273-37.123 23.344-66.509-2.4653-6.6284-2.625-6.7692-9.4677-8.3484-13.564-3.1306-17.788-0.5207-19.027 11.757-0.2165 2.1462-1.3616 5.0274-2.7618 6.9492l-2.392 3.2831 2.9861 2.409c3.2102 2.5898 3.5337 5.2427 0.55274 4.5325-3.6243-0.86345-7.514-3.0808-8.8748-5.0594-1.6411-2.386-6.1656-3.1684-5.8788-1.0166 0.50189 3.7647-0.22135 8.6764-1.2418 8.4332-0.59457-0.14165-1.2981 0.50029-1.5634 1.4265-0.29097 1.016-0.56231 1.1527-0.6839 0.34465-0.11085-0.73667-0.6533-1.1898-1.2054-1.0071-0.55495 0.18372-0.45242-1.0532 0.22926-2.7659l1.2331-3.0983-1.7669 2.955c-2.1376 3.5749-4.6451 1.2105-2.7763-2.6178 0.96895-1.9849 0.8666-1.9704-1.0812 0.15372-1.1833 1.2904-2.0579 3.0481-1.9436 3.9059 0.5535 4.1518-1.5718 0.43897-2.4219-4.231-0.80606-4.428-1.4057-5.4506-3.4872-5.9465l-2.5137-0.59885 1.1414 4.6409c1.2981 5.2781 1.2764 14.016-0.0271 10.912-0.59847-1.4254-1.2379 0.49748-2.9051 8.7364-2.5289 12.497-2.2284 12.276-13.901 10.242-4.236-0.73816-8.3537-0.93002-9.1503-0.42638-1.1427 0.72245 0.45771 1.2183 7.5829 2.3494 10.36 1.6446 11.358 2.5761 7.1297 6.6537-2.277 2.1959-2.6722 2.3088-2.2926 0.65521 0.25254-1.0989 1.144-2.4476 1.9817-2.9971 1.2608-0.82704-0.0324-1.2542-7.5121-2.4814-7.5932-1.2458-9.0696-1.7411-9.2512-3.1037-0.56599-4.2456 3.1109-4.9406 13.298-2.5136 8.6366 2.0575 12.563-5.0817 11.826-21.506-0.39218-8.748-8.6661-27.085-12.649-28.034-0.77659-0.18504-2.443-1.6105-3.7031-3.1677-1.2601-1.5572-1.9109-2.0166-1.4463-1.021 1.0974 2.3517-0.0277 2.9649-3.7307 2.0331-3.3433-0.84131-9.2645-8.8863-14.313-19.446-6.1208-12.804-1.1324-7.145 6.755 7.6629 4.209 7.902 6.0679 10.44 7.9788 10.896l2.4914 0.59354-1.4324-2.6542c-1.6437-3.0458-10.662-25.754-10.499-26.437 0.40684-1.7078 2.3631 0.78462 3.7633 4.7946 2.4639 7.0563 7.8862 20.118 8.4027 20.241 0.24669 0.0588-1.471-4.7702-3.8172-10.731s-3.9873-11.009-3.6469-11.219c0.34037-0.20941 1.6387 2.395 2.8852 5.7875s2.8633 6.9317 3.5929 7.8648c0.89332 1.1425 0.8605 0.41055-0.1005-2.2414-0.78485-2.1659-1.6384-5.2616-1.8966-6.8793-0.42408-2.656-2.8613-5.2657-4.8718-5.2167-0.42652 0.0104-0.67121-0.41882-0.54375-0.95385 0.4979-2.09 4.2444 0.23202 13.537 8.3897 5.3248 4.6746 15.072 13.055 21.661 18.623s13.339 12.138 15 14.599c1.6608 2.4613 2.5399 3.4356 1.9534 2.1652s-1.1511-3.1081-1.2548-4.0835c-0.10681-1.0051-9.7891-9.8496-22.349-20.415-25.088-21.104-25.168-21.197-20.759-24.146 5.0864-3.402 7.7284-9.9472 5.754-14.255-0.36044-0.78639-1.0188-1.3095-1.463-1.1624-1.2178 0.40315-4.4521-3.6023-3.5967-4.4542 0.92877-0.92498-5.8236-6.7949-7.2668-6.3171-1.1162 0.36955-29.394-10.25-30.025-11.276-0.84592-1.375 8.6106 1.6796 18.655 6.0258 5.921 2.5621 10.995 4.5173 11.275 4.3449 0.49941-0.30724-5.0027-2.8066-26.695-12.127-5.9474-2.5552-12.155-5.6257-13.794-6.8233-2.8836-2.1063-24.19-38.438-26.316-44.874-0.59534-1.8022-1.9339-3.2049-3.5696-3.7405-3.1008-1.0154-4.218-1.9964-3.8816-3.4086 0.16217-0.68086 0.58548-0.61383 1.2383 0.19609 3.7494 4.6519 3.4366 1.8271-0.72262-6.5259-6.5532-13.161-7.7014-12.669 16.275-6.9745 22.73 5.3985 24.087 5.4387 29.062 0.8607 1.6511-1.5196 2.8661-2.1922 2.6999-1.4948-1.807 7.5851-11.732 8.0363-34.72 1.5783-15.465-4.3446-16.243-4.4734-15.329-2.5395 2.7472 5.8133 24.919 46.884 29.437 54.529 6.4447 10.905 7.3132 11.544 27.106 19.938 32.923 13.963 41.108 24.965 28.515 38.331-3.1651 3.3594-4.951 1.3452 20.609 23.244 14.868 12.738 22.148 19.655 24.199 22.989 3.8805 6.3076 4.5273 5.8288 7.6456-5.6591 3.6141-13.314 5.4805-14.114 23.13-9.9095 16.322 3.8885 17.005 51.554 1.0355 72.314-5.9157 7.6902-8.0558 8.2274-22.264 5.5886l-11.86-2.2027-3.8315 4.2973c-5.7499 6.4489-8.9554 7.2304-22.327 5.4436-22.724-3.0366-27.169-4.9391-31.72-13.579l-3.0623-5.8134-5.2231-0.60859c-2.8727-0.33474-5.3392-0.12242-5.4812 0.47174-1.4679 6.1443-14.465 16.162-20.434 15.75-8.1172-0.56002-31.487-4.3828-34.898-5.7086zm106.28-60.713c3.0571-0.90279 3.8408-0.72794 10.85 2.4205l7.5544 3.3936-2.0272-3.5039c-1.115-1.9272-6.8414-7.568-12.725-12.535-5.884-4.9673-14.995-12.824-20.247-17.46-5.2516-4.6358-9.3672-7.8577-9.1459-7.1598 2.4089 7.5954 8.8301 22.306 10.059 23.045 0.86513 0.52 2.7502 3.3075 4.1891 6.1944 2.9379 5.8945 5.7956 7.2883 11.493 5.6057zm-74.18 3.8476c0.1042-5.8967 1.8795-9.2357 5.2032-9.7863l3.099-0.51331-1.8978-2.1382c-1.0438-1.176-2.6676-2.3216-3.6084-2.5458-1.079-0.25705-1.6864-1.4456-1.645-3.2189 0.23824-10.22-2.9909-20.571-7.1113-22.797-3.7078-2.0026-9.9859-11.345-7.1736-10.675 0.51649 0.12305 1.7427 2.0342 2.7248 4.2471 1.0783 2.4295 2.632 4.2305 3.9219 4.5463 5.6465 1.3823 9.8807 8.9401 8.4427 15.07-0.22436 0.95477-0.052 3.1458 0.38211 4.8686 0.43415 1.7229 0.65346 3.703 0.48733 4.4004-0.16618 0.69732 1.1484 2.4611 2.9212 3.9194 3.8148 3.1381 3.7186 6.4578-0.18692 6.4498l-2.5041-5e-3 2.2307 2.8133c2.3192 2.9249 6.6488 4.6793 7.0801 2.8689 0.40612-1.7047-3.4831-10.921-5.2812-12.515-0.91602-0.812-1.5612-1.9141-1.4337-2.4491 0.13736-0.57653 1.0053-0.26518 2.1309 0.76438 1.0445 0.95543 2.2107 1.8856 2.5915 2.067 0.38082 0.18139 0.88519 0.49146 1.1208 0.68895 0.23566 0.19749 0.9626 0.54415 1.6155 0.77036 0.65283 0.22625 1.1114 0.9715 1.0189 1.6562-0.0919 0.68479-0.23042 1.7493-0.30664 2.3658-0.0929 0.75103 0.52813 0.81416 1.8819 0.19137 1.8283-0.84114 1.856-0.79873 0.29122 0.44619-0.95106 0.75663-2.0559 1.0476-2.4552 0.64666-0.39933-0.40096-0.62558 0.0246-0.50278 0.94577 0.18397 1.38 0.54014 1.5195 2.0237 0.7925 1.5634-0.76615 1.6077-0.65755 0.33634 0.82488-2.2791 2.6575-1.5501 3.8285 2.758 4.4304 4.0304 0.56299 5.0133-0.31234 3.7979-3.3825-0.51603-1.3036-0.65726-1.0963-0.60264 0.88442 0.07 2.5361 0.0486 2.5411-1.086 0.25526-0.8178-1.6476-1.391-2.0103-1.9534-1.2364-0.43781 0.60243-1.2651 0.98358-1.8385 0.84698-0.57336-0.13657-0.0416-0.93509 1.1817-1.7744 1.5697-1.077 1.8459-1.6162 0.93852-1.8324-0.70712-0.16848-0.92691-0.52701-0.48841-0.79676 0.43848-0.26977-0.0216-2.3454-1.0224-4.6125l-1.8196-4.122 2.2449 2.3575c1.2347 1.2966 2.3516 1.9096 2.482 1.3623 0.1304-0.54737 1.1962-0.7667 2.3686-0.48741 2.0882 0.49747 2.1004 0.4682 0.60008-1.4401-1.4684-1.8677-1.4588-1.9184 0.23075-1.23 2.8624 1.1662 4.2291 5.9316 1.5157 5.2851-2.0924-0.49848-2.096-0.47137-0.59309 4.4532 2.095 6.8643 0.86369 8.5219-5.7645 7.7608-8.2211-0.944-13.998-2.5586-15.076-4.2135-0.81162-1.246-1.0498-0.92269-1.3168 1.7875-0.40353 4.0946-2.0231 4.927-1.9537 1.0042zm9.874-22.292c-2.208-4.7986-16.223-29.608-20.792-36.806-4.7721-7.5184-4.4736-8.7148 2.8846-11.563 6.0694-2.3494 9.7376-2.4116 4.2924-0.0728-1.8782 0.80676-4.7436 2.1547-6.3675 2.9954l-2.9525 1.5285 5.6244 9.3879c9.2903 15.507 19.302 33.658 20.211 36.644 0.84233 2.7663-1.4107 1.125-2.9008-2.1132zm-81.559-69.166c-1.1074-2.7957-0.34596-4.1358 1.0555-1.8577 1.2771 2.0758 3.396 2.3349 12.43 1.5196 8.7316-0.78792 33.185 0.28398 39.207 1.7186 3.6003 0.85771 3.676 0.97402 2.8603 4.3976l-0.83777 3.5166 2.9084-1.049c5.1087-1.8426 19.752-1.8239 20.364 0.0261 0.18347 0.5542-1.7107 0.75774-4.2092 0.45232-2.4986-0.30538-7.6455 0.19024-11.438 1.1014-7.9084 1.9003-10.621 1.256-9.7694-2.3202 0.716-3.0055-1.7955-4.6351-7.258-4.7096-2.1687-0.0296-8.0491-0.2942-13.068-0.58805-5.0185-0.29385-12.649-0.30276-16.957-0.0198-13.124 0.86202-14.138 0.71689-15.289-2.1881z"/>
 </g>
</svg>
