<?xml version="1.0" encoding="UTF-8" standalone="no"?>
<svg
   xmlns:dc="http://purl.org/dc/elements/1.1/"
   xmlns:cc="http://creativecommons.org/ns#"
   xmlns:rdf="http://www.w3.org/1999/02/22-rdf-syntax-ns#"
   xmlns:svg="http://www.w3.org/2000/svg"
   xmlns="http://www.w3.org/2000/svg"
   xmlns:sodipodi="http://sodipodi.sourceforge.net/DTD/sodipodi-0.dtd"
   xmlns:inkscape="http://www.inkscape.org/namespaces/inkscape"
   sodipodi:docname="tradrack.svg.2020_01_25_06_12_07.0.svg"
   inkscape:version="1.0beta2 (2b71d25, 2019-12-03)"
   id="svg8"
   version="1.1"
   viewBox="0 0 210 297"
   height="297mm"
   width="210mm">
  <defs
     id="defs2">
    <inkscape:perspective
       id="perspective2130"
       inkscape:persp3d-origin="105 : 99 : 1"
       inkscape:vp_z="425.44643 : -45.779767 : 1"
       inkscape:vp_y="17.844263 : 1095.1947 : 1"
       inkscape:vp_x="-247.95238 : -48.047625 : 1"
       sodipodi:type="inkscape:persp3d" />
    <marker
       inkscape:isstock="true"
       style="overflow:visible;"
       id="Arrow1Send"
       refX="0.0"
       refY="0.0"
       orient="auto"
       inkscape:stockid="Arrow1Send">
      <path
         transform="scale(0.2) rotate(180) translate(6,0)"
         style="fill-rule:evenodd;stroke:#7060ed;stroke-width:1pt;stroke-opacity:0.915323;fill:none;fill-opacity:1"
         d="M 0.0,0.0 L 5.0,-5.0 L -12.5,0.0 L 5.0,5.0 L 0.0,0.0 z "
         id="path968" />
    </marker>
  </defs>
  <sodipodi:namedview
     inkscape:snap-grids="false"
     inkscape:window-maximized="0"
     inkscape:window-y="23"
     inkscape:window-x="0"
     inkscape:window-height="880"
     inkscape:window-width="1600"
     showgrid="false"
     inkscape:document-rotation="0"
     inkscape:current-layer="layer5"
     inkscape:document-units="mm"
     inkscape:cy="598.27155"
     inkscape:cx="-405.29983"
     inkscape:zoom="0.5986532"
     inkscape:pageshadow="2"
     inkscape:pageopacity="0.0"
     borderopacity="1.0"
     bordercolor="#666666"
     pagecolor="#ffffff"
     id="base">
    <inkscape:grid
       id="grid14"
       type="xygrid" />
  </sodipodi:namedview>
  <metadata
     id="metadata5">
    <rdf:RDF>
      <cc:Work
         rdf:about="">
        <dc:format>image/svg+xml</dc:format>
        <dc:type
           rdf:resource="http://purl.org/dc/dcmitype/StillImage" />
        <dc:title />
      </cc:Work>
    </rdf:RDF>
  </metadata>
  <g
     style="display:inline"
     inkscape:label="Layer 2"
     id="layer5"
     inkscape:groupmode="layer">
    <path
       style="color:#000000;font-style:normal;font-variant:normal;font-weight:normal;font-stretch:normal;font-size:medium;line-height:normal;font-family:sans-serif;font-variant-ligatures:normal;font-variant-position:normal;font-variant-caps:normal;font-variant-numeric:normal;font-variant-alternates:normal;font-variant-east-asian:normal;font-feature-settings:normal;font-variation-settings:normal;text-indent:0;text-align:start;text-decoration:none;text-decoration-line:none;text-decoration-style:solid;text-decoration-color:#000000;letter-spacing:normal;word-spacing:normal;text-transform:none;writing-mode:lr-tb;direction:ltr;text-orientation:mixed;dominant-baseline:auto;baseline-shift:baseline;text-anchor:start;white-space:normal;shape-padding:0;shape-margin:0;inline-size:0;clip-rule:nonzero;display:inline;overflow:visible;visibility:visible;isolation:auto;mix-blend-mode:normal;color-interpolation:sRGB;color-interpolation-filters:linearRGB;solid-color:#000000;solid-opacity:1;vector-effect:none;fill:#7c75c1;fill-opacity:1;fill-rule:nonzero;stroke:none;stroke-width:2.91042;stroke-linecap:butt;stroke-linejoin:round;stroke-miterlimit:4;stroke-dasharray:none;stroke-dashoffset:0;stroke-opacity:1;color-rendering:auto;image-rendering:auto;shape-rendering:auto;text-rendering:auto;enable-background:accumulate;stop-color:#000000"
       d="m 42.332032,218.41406 c 6.64418,0 12.03906,-5.39488 12.03906,-12.03907 V 47.624991 c 0,-6.644179 -5.39488,-12.03906 -12.03906,-12.03906 -6.64418,0 -12.03711,5.394881 -12.03711,12.03906 V 206.37499 c 0,6.64419 5.39293,12.03907 12.03711,12.03907 z m 0,-2.91016 c -5.08215,0 -9.12695,-4.04675 -9.12695,-9.12891 V 47.624991 c 0,-5.08216 4.0448,-9.128909 9.12695,-9.128909 5.08215,0 9.12891,4.04675 9.12891,9.128909 V 206.37499 c 0,5.08216 -4.04676,9.12891 -9.12891,9.12891 z"
       id="path962"
       inkscape:connector-curvature="0" />
    <g
       transform="rotate(180,40.335939,126.65625)"
       style="fill:#7c75c1;fill-opacity:1"
       id="g964">
      <path
         style="color:#000000;font-style:normal;font-variant:normal;font-weight:normal;font-stretch:normal;font-size:medium;line-height:normal;font-family:sans-serif;font-variant-ligatures:normal;font-variant-position:normal;font-variant-caps:normal;font-variant-numeric:normal;font-variant-alternates:normal;font-variant-east-asian:normal;font-feature-settings:normal;font-variation-settings:normal;text-indent:0;text-align:start;text-decoration:none;text-decoration-line:none;text-decoration-style:solid;text-decoration-color:#000000;letter-spacing:normal;word-spacing:normal;text-transform:none;writing-mode:lr-tb;direction:ltr;text-orientation:mixed;dominant-baseline:auto;baseline-shift:baseline;text-anchor:start;white-space:normal;shape-padding:0;shape-margin:0;inline-size:0;clip-rule:nonzero;display:inline;overflow:visible;visibility:visible;isolation:auto;mix-blend-mode:normal;color-interpolation:sRGB;color-interpolation-filters:linearRGB;solid-color:#000000;solid-opacity:1;vector-effect:none;fill:#7c75c1;fill-opacity:1;fill-rule:nonzero;stroke:none;stroke-width:2.91042;stroke-linecap:butt;stroke-linejoin:round;stroke-miterlimit:4;stroke-dasharray:none;stroke-dashoffset:0;stroke-opacity:1;color-rendering:auto;image-rendering:auto;shape-rendering:auto;text-rendering:auto;enable-background:accumulate;stop-color:#000000;stop-opacity:1"
         d="m 40.336382,38.55357 c 4.338057,0 7.830427,4.720166 7.830427,10.583333 V 204.17683 c 0,5.86316 -3.49237,10.58333 -7.830427,10.58333 -4.338057,0 -7.830427,-4.72017 -7.830427,-10.58333 V 49.136903 c 0,-5.863167 3.49237,-10.583333 7.830427,-10.583333 z"
         id="path966"
         inkscape:connector-curvature="0" />
      <path
         style="color:#000000;font-style:normal;font-variant:normal;font-weight:normal;font-stretch:normal;font-size:medium;line-height:normal;font-family:sans-serif;font-variant-ligatures:normal;font-variant-position:normal;font-variant-caps:normal;font-variant-numeric:normal;font-variant-alternates:normal;font-variant-east-asian:normal;font-feature-settings:normal;font-variation-settings:normal;text-indent:0;text-align:start;text-decoration:none;text-decoration-line:none;text-decoration-style:solid;text-decoration-color:#000000;letter-spacing:normal;word-spacing:normal;text-transform:none;writing-mode:lr-tb;direction:ltr;text-orientation:mixed;dominant-baseline:auto;baseline-shift:baseline;text-anchor:start;white-space:normal;shape-padding:0;shape-margin:0;inline-size:0;clip-rule:nonzero;display:inline;overflow:visible;visibility:visible;isolation:auto;mix-blend-mode:normal;color-interpolation:sRGB;color-interpolation-filters:linearRGB;solid-color:#000000;solid-opacity:1;vector-effect:none;fill:#7c75c1;fill-opacity:1;fill-rule:nonzero;stroke:none;stroke-width:2.91042;stroke-linecap:butt;stroke-linejoin:round;stroke-miterlimit:4;stroke-dasharray:none;stroke-dashoffset:0;stroke-opacity:1;color-rendering:auto;image-rendering:auto;shape-rendering:auto;text-rendering:auto;enable-background:accumulate;stop-color:#000000;stop-opacity:1"
         d="m 40.335938,37.097656 c -2.696825,0 -5.084183,1.484928 -6.710938,3.683594 -1.626755,2.198666 -2.574219,5.134955 -2.574219,8.355469 V 204.17773 c 0,3.22051 0.947464,6.15681 2.574219,8.35547 1.626755,2.19867 4.014112,3.68164 6.710938,3.68164 2.696825,0 5.086135,-1.48297 6.71289,-3.68164 1.626755,-2.19866 2.572266,-5.13496 2.572266,-8.35547 V 49.136719 c 0,-3.220514 -0.945511,-6.156803 -2.572266,-8.355469 -1.626755,-2.198666 -4.016066,-3.683594 -6.71289,-3.683594 z m 0,2.910156 c 1.641232,0 3.169102,0.876698 4.373046,2.503907 1.203944,1.627208 2.001954,3.982346 2.001954,6.625 V 204.17773 c 0,2.64265 -0.79801,4.99584 -2.001954,6.62305 -1.203944,1.62721 -2.731815,2.50391 -4.373046,2.50391 -1.641232,0 -3.16715,-0.8767 -4.371094,-2.50391 -1.203944,-1.62721 -2.003906,-3.9804 -2.003906,-6.62305 V 49.136719 c 0,-2.642654 0.799962,-4.997792 2.003906,-6.625 1.203944,-1.627209 2.729861,-2.503906 4.371094,-2.503907 z"
         id="path969"
         inkscape:connector-curvature="0" />
    </g>
    <path
       style="color:#000000;font-style:normal;font-variant:normal;font-weight:normal;font-stretch:normal;font-size:medium;line-height:normal;font-family:sans-serif;font-variant-ligatures:normal;font-variant-position:normal;font-variant-caps:normal;font-variant-numeric:normal;font-variant-alternates:normal;font-variant-east-asian:normal;font-feature-settings:normal;font-variation-settings:normal;text-indent:0;text-align:start;text-decoration:none;text-decoration-line:none;text-decoration-style:solid;text-decoration-color:#000000;letter-spacing:normal;word-spacing:normal;text-transform:none;writing-mode:lr-tb;direction:ltr;text-orientation:mixed;dominant-baseline:auto;baseline-shift:baseline;text-anchor:start;white-space:normal;shape-padding:0;shape-margin:0;inline-size:0;clip-rule:nonzero;display:inline;overflow:visible;visibility:visible;isolation:auto;mix-blend-mode:normal;color-interpolation:sRGB;color-interpolation-filters:linearRGB;solid-color:#000000;solid-opacity:1;vector-effect:none;fill:#7c75c1;fill-opacity:1;fill-rule:nonzero;stroke:none;stroke-width:2.91042;stroke-linecap:butt;stroke-linejoin:round;stroke-miterlimit:4;stroke-dasharray:none;stroke-dashoffset:0;stroke-opacity:1;color-rendering:auto;image-rendering:auto;shape-rendering:auto;text-rendering:auto;enable-background:accumulate;stop-color:#000000"
       d="m 111.12501,181.37109 c 9.55397,0 17.33007,-7.7761 17.33007,-17.33008 0,-9.55397 -7.7761,-17.33007 -17.33007,-17.33007 -9.55397,0 -17.33008,7.7761 -17.33008,17.33007 0,9.55398 7.77611,17.33008 17.33008,17.33008 z m 0,-2.91015 c -7.98107,0 -14.41992,-6.43886 -14.41992,-14.41993 0,-7.98106 6.43885,-14.41992 14.41992,-14.41992 7.98107,0 14.41992,6.43886 14.41992,14.41992 0,7.98107 -6.43885,14.41993 -14.41992,14.41993 z"
       id="path973"
       inkscape:connector-curvature="0" />
    <g
       transform="rotate(180,109.29981,164.04199)"
       style="fill:#7c75c1;fill-opacity:1"
       id="g975">
      <path
         style="color:#000000;font-style:normal;font-variant:normal;font-weight:normal;font-stretch:normal;font-size:medium;line-height:normal;font-family:sans-serif;font-variant-ligatures:normal;font-variant-position:normal;font-variant-caps:normal;font-variant-numeric:normal;font-variant-alternates:normal;font-variant-east-asian:normal;font-feature-settings:normal;font-variation-settings:normal;text-indent:0;text-align:start;text-decoration:none;text-decoration-line:none;text-decoration-style:solid;text-decoration-color:#000000;letter-spacing:normal;word-spacing:normal;text-transform:none;writing-mode:lr-tb;direction:ltr;text-orientation:mixed;dominant-baseline:auto;baseline-shift:baseline;text-anchor:start;white-space:normal;shape-padding:0;shape-margin:0;inline-size:0;clip-rule:nonzero;display:inline;overflow:visible;visibility:visible;isolation:auto;mix-blend-mode:normal;color-interpolation:sRGB;color-interpolation-filters:linearRGB;solid-color:#000000;solid-opacity:1;vector-effect:none;fill:#7c75c1;fill-opacity:1;fill-rule:nonzero;stroke:none;stroke-width:2.91042;stroke-linecap:butt;stroke-linejoin:round;stroke-miterlimit:4;stroke-dasharray:none;stroke-dashoffset:0;stroke-opacity:1;color-rendering:auto;image-rendering:auto;shape-rendering:auto;text-rendering:auto;enable-background:accumulate;stop-color:#000000;stop-opacity:1"
         d="m 122.52913,164.04167 c 0,7.30627 -5.9229,13.22918 -13.22917,13.22918 -7.30628,0 -13.229182,-5.9229 -13.22918,-13.22918 -2e-6,-7.30628 5.9229,-13.22918 13.22918,-13.22918 7.30627,0 13.22917,5.92291 13.22917,13.22918"
         id="path977"
         inkscape:connector-curvature="0" />
      <path
         style="color:#000000;font-style:normal;font-variant:normal;font-weight:normal;font-stretch:normal;font-size:medium;line-height:normal;font-family:sans-serif;font-variant-ligatures:normal;font-variant-position:normal;font-variant-caps:normal;font-variant-numeric:normal;font-variant-alternates:normal;font-variant-east-asian:normal;font-feature-settings:normal;font-variation-settings:normal;text-indent:0;text-align:start;text-decoration:none;text-decoration-line:none;text-decoration-style:solid;text-decoration-color:#000000;letter-spacing:normal;word-spacing:normal;text-transform:none;writing-mode:lr-tb;direction:ltr;text-orientation:mixed;dominant-baseline:auto;baseline-shift:baseline;text-anchor:start;white-space:normal;shape-padding:0;shape-margin:0;inline-size:0;clip-rule:nonzero;display:inline;overflow:visible;visibility:visible;isolation:auto;mix-blend-mode:normal;color-interpolation:sRGB;color-interpolation-filters:linearRGB;solid-color:#000000;solid-opacity:1;vector-effect:none;fill:#7c75c1;fill-opacity:1;fill-rule:nonzero;stroke:none;stroke-width:2.91042;stroke-linecap:butt;stroke-linejoin:round;stroke-miterlimit:4;stroke-dasharray:none;stroke-dashoffset:0;stroke-opacity:1;color-rendering:auto;image-rendering:auto;shape-rendering:auto;text-rendering:auto;enable-background:accumulate;stop-color:#000000;stop-opacity:1"
         d="m 109.30078,149.35742 c -8.09273,0 -14.685547,6.59087 -14.685546,14.6836 -10e-7,8.09272 6.592816,14.68554 14.685546,14.68554 8.09273,0 14.6836,-6.59282 14.6836,-14.68554 0,-8.09273 -6.59087,-14.68359 -14.6836,-14.6836 z m 0,2.91016 c 6.51982,0 11.77344,5.25362 11.77344,11.77344 0,6.51981 -5.25362,11.77538 -11.77344,11.77539 -6.51982,0 -11.775391,-5.25557 -11.775389,-11.77539 -2e-6,-6.51983 5.255569,-11.77344 11.775389,-11.77344 z"
         id="path979"
         inkscape:connector-curvature="0" />
    </g>
    <path
       style="color:#000000;font-style:normal;font-variant:normal;font-weight:normal;font-stretch:normal;font-size:medium;line-height:normal;font-family:sans-serif;font-variant-ligatures:normal;font-variant-position:normal;font-variant-caps:normal;font-variant-numeric:normal;font-variant-alternates:normal;font-variant-east-asian:normal;font-feature-settings:normal;font-variation-settings:normal;text-indent:0;text-align:start;text-decoration:none;text-decoration-line:none;text-decoration-style:solid;text-decoration-color:#000000;letter-spacing:normal;word-spacing:normal;text-transform:none;writing-mode:lr-tb;direction:ltr;text-orientation:mixed;dominant-baseline:auto;baseline-shift:baseline;text-anchor:start;white-space:normal;shape-padding:0;shape-margin:0;inline-size:0;clip-rule:nonzero;display:inline;overflow:visible;visibility:visible;isolation:auto;mix-blend-mode:normal;color-interpolation:sRGB;color-interpolation-filters:linearRGB;solid-color:#000000;solid-opacity:1;vector-effect:none;fill:#7c75c1;fill-opacity:1;fill-rule:nonzero;stroke:none;stroke-width:2.91042;stroke-linecap:butt;stroke-linejoin:round;stroke-miterlimit:4;stroke-dasharray:none;stroke-dashoffset:0;stroke-opacity:1;color-rendering:auto;image-rendering:auto;shape-rendering:auto;text-rendering:auto;enable-background:accumulate;stop-color:#000000"
       d="m 74.08203,260.7474 c 6.64418,0 12.03906,-5.39488 12.03906,-12.03906 V 89.95833 c 0,-6.64418 -5.39488,-12.03906 -12.03906,-12.03906 -6.64418,0 -12.03711,5.39488 -12.03711,12.03906 v 158.75001 c 0,6.64418 5.39293,12.03906 12.03711,12.03906 z m 0,-2.91016 c -5.08215,0 -9.12695,-4.04675 -9.12695,-9.1289 V 89.95833 c 0,-5.08216 4.0448,-9.12891 9.12695,-9.12891 5.08215,0 9.12891,4.04675 9.12891,9.12891 v 158.75001 c 0,5.08215 -4.04676,9.1289 -9.12891,9.1289 z"
       id="path983"
       inkscape:connector-curvature="0" />
    <g
       style="fill:#7c75c1;fill-opacity:1"
       transform="rotate(180,56.210938,147.82292)"
       id="g985">
      <path
         style="color:#000000;font-style:normal;font-variant:normal;font-weight:normal;font-stretch:normal;font-size:medium;line-height:normal;font-family:sans-serif;font-variant-ligatures:normal;font-variant-position:normal;font-variant-caps:normal;font-variant-numeric:normal;font-variant-alternates:normal;font-variant-east-asian:normal;font-feature-settings:normal;font-variation-settings:normal;text-indent:0;text-align:start;text-decoration:none;text-decoration-line:none;text-decoration-style:solid;text-decoration-color:#000000;letter-spacing:normal;word-spacing:normal;text-transform:none;writing-mode:lr-tb;direction:ltr;text-orientation:mixed;dominant-baseline:auto;baseline-shift:baseline;text-anchor:start;white-space:normal;shape-padding:0;shape-margin:0;inline-size:0;clip-rule:nonzero;display:inline;overflow:visible;visibility:visible;isolation:auto;mix-blend-mode:normal;color-interpolation:sRGB;color-interpolation-filters:linearRGB;solid-color:#000000;solid-opacity:1;vector-effect:none;fill:#7c75c1;fill-opacity:1;fill-rule:nonzero;stroke:none;stroke-width:2.91042;stroke-linecap:butt;stroke-linejoin:round;stroke-miterlimit:4;stroke-dasharray:none;stroke-dashoffset:0;stroke-opacity:1;color-rendering:auto;image-rendering:auto;shape-rendering:auto;text-rendering:auto;enable-background:accumulate;stop-color:#000000;stop-opacity:1"
         d="m 40.336382,38.55357 c 4.338057,0 7.830427,4.720166 7.830427,10.583333 V 204.17683 c 0,5.86316 -3.49237,10.58333 -7.830427,10.58333 -4.338057,0 -7.830427,-4.72017 -7.830427,-10.58333 V 49.136903 c 0,-5.863167 3.49237,-10.583333 7.830427,-10.583333 z"
         id="path987"
         inkscape:connector-curvature="0" />
      <path
         style="color:#000000;font-style:normal;font-variant:normal;font-weight:normal;font-stretch:normal;font-size:medium;line-height:normal;font-family:sans-serif;font-variant-ligatures:normal;font-variant-position:normal;font-variant-caps:normal;font-variant-numeric:normal;font-variant-alternates:normal;font-variant-east-asian:normal;font-feature-settings:normal;font-variation-settings:normal;text-indent:0;text-align:start;text-decoration:none;text-decoration-line:none;text-decoration-style:solid;text-decoration-color:#000000;letter-spacing:normal;word-spacing:normal;text-transform:none;writing-mode:lr-tb;direction:ltr;text-orientation:mixed;dominant-baseline:auto;baseline-shift:baseline;text-anchor:start;white-space:normal;shape-padding:0;shape-margin:0;inline-size:0;clip-rule:nonzero;display:inline;overflow:visible;visibility:visible;isolation:auto;mix-blend-mode:normal;color-interpolation:sRGB;color-interpolation-filters:linearRGB;solid-color:#000000;solid-opacity:1;vector-effect:none;fill:#7c75c1;fill-opacity:1;fill-rule:nonzero;stroke:none;stroke-width:2.91042;stroke-linecap:butt;stroke-linejoin:round;stroke-miterlimit:4;stroke-dasharray:none;stroke-dashoffset:0;stroke-opacity:1;color-rendering:auto;image-rendering:auto;shape-rendering:auto;text-rendering:auto;enable-background:accumulate;stop-color:#000000;stop-opacity:1"
         d="m 40.335938,37.097656 c -2.696825,0 -5.084183,1.484928 -6.710938,3.683594 -1.626755,2.198666 -2.574219,5.134955 -2.574219,8.355469 V 204.17773 c 0,3.22051 0.947464,6.15681 2.574219,8.35547 1.626755,2.19867 4.014112,3.68164 6.710938,3.68164 2.696825,0 5.086135,-1.48297 6.71289,-3.68164 1.626755,-2.19866 2.572266,-5.13496 2.572266,-8.35547 V 49.136719 c 0,-3.220514 -0.945511,-6.156803 -2.572266,-8.355469 -1.626755,-2.198666 -4.016066,-3.683594 -6.71289,-3.683594 z m 0,2.910156 c 1.641232,0 3.169102,0.876698 4.373046,2.503907 1.203944,1.627208 2.001954,3.982346 2.001954,6.625 V 204.17773 c 0,2.64265 -0.79801,4.99584 -2.001954,6.62305 -1.203944,1.62721 -2.731815,2.50391 -4.373046,2.50391 -1.641232,0 -3.16715,-0.8767 -4.371094,-2.50391 -1.203944,-1.62721 -2.003906,-3.9804 -2.003906,-6.62305 V 49.136719 c 0,-2.642654 0.799962,-4.997792 2.003906,-6.625 1.203944,-1.627209 2.729861,-2.503906 4.371094,-2.503907 z"
         id="path989"
         inkscape:connector-curvature="0" />
    </g>
    <path
       style="color:#000000;font-style:normal;font-variant:normal;font-weight:normal;font-stretch:normal;font-size:medium;line-height:normal;font-family:sans-serif;font-variant-ligatures:normal;font-variant-position:normal;font-variant-caps:normal;font-variant-numeric:normal;font-variant-alternates:normal;font-variant-east-asian:normal;font-feature-settings:normal;font-variation-settings:normal;text-indent:0;text-align:start;text-decoration:none;text-decoration-line:none;text-decoration-style:solid;text-decoration-color:#000000;letter-spacing:normal;word-spacing:normal;text-transform:none;writing-mode:lr-tb;direction:ltr;text-orientation:mixed;dominant-baseline:auto;baseline-shift:baseline;text-anchor:start;white-space:normal;shape-padding:0;shape-margin:0;inline-size:0;clip-rule:nonzero;display:inline;overflow:visible;visibility:visible;isolation:auto;mix-blend-mode:normal;color-interpolation:sRGB;color-interpolation-filters:linearRGB;solid-color:#000000;solid-opacity:1;vector-effect:none;fill:#7c75c1;fill-opacity:1;fill-rule:nonzero;stroke:none;stroke-width:2.91042;stroke-linecap:butt;stroke-linejoin:round;stroke-miterlimit:4;stroke-dasharray:none;stroke-dashoffset:0;stroke-opacity:1;color-rendering:auto;image-rendering:auto;shape-rendering:auto;text-rendering:auto;enable-background:accumulate;stop-color:#000000"
       d="m 148.16536,281.91405 c 6.64418,0 12.03906,-5.39488 12.03906,-12.03906 V 111.12498 c 0,-6.64418 -5.39488,-12.03906 -12.03906,-12.03906 -6.64419,0 -12.03711,5.39488 -12.03711,12.03906 v 158.75001 c 0,6.64418 5.39292,12.03906 12.03711,12.03906 z m 0,-2.91016 c -5.08215,0 -9.12696,-4.04675 -9.12696,-9.1289 V 111.12498 c 0,-5.08216 4.04481,-9.12891 9.12696,-9.12891 5.08215,0 9.1289,4.04675 9.1289,9.12891 v 158.75001 c 0,5.08215 -4.04675,9.1289 -9.1289,9.1289 z"
       id="path993"
       inkscape:connector-curvature="0" />
    <g
       style="fill:#7c75c1;fill-opacity:1"
       transform="rotate(180,93.252608,158.40625)"
       id="g995">
      <path
         style="color:#000000;font-style:normal;font-variant:normal;font-weight:normal;font-stretch:normal;font-size:medium;line-height:normal;font-family:sans-serif;font-variant-ligatures:normal;font-variant-position:normal;font-variant-caps:normal;font-variant-numeric:normal;font-variant-alternates:normal;font-variant-east-asian:normal;font-feature-settings:normal;font-variation-settings:normal;text-indent:0;text-align:start;text-decoration:none;text-decoration-line:none;text-decoration-style:solid;text-decoration-color:#000000;letter-spacing:normal;word-spacing:normal;text-transform:none;writing-mode:lr-tb;direction:ltr;text-orientation:mixed;dominant-baseline:auto;baseline-shift:baseline;text-anchor:start;white-space:normal;shape-padding:0;shape-margin:0;inline-size:0;clip-rule:nonzero;display:inline;overflow:visible;visibility:visible;isolation:auto;mix-blend-mode:normal;color-interpolation:sRGB;color-interpolation-filters:linearRGB;solid-color:#000000;solid-opacity:1;vector-effect:none;fill:#7c75c1;fill-opacity:1;fill-rule:nonzero;stroke:none;stroke-width:2.91042;stroke-linecap:butt;stroke-linejoin:round;stroke-miterlimit:4;stroke-dasharray:none;stroke-dashoffset:0;stroke-opacity:1;color-rendering:auto;image-rendering:auto;shape-rendering:auto;text-rendering:auto;enable-background:accumulate;stop-color:#000000;stop-opacity:1"
         d="m 40.336382,38.55357 c 4.338057,0 7.830427,4.720166 7.830427,10.583333 V 204.17683 c 0,5.86316 -3.49237,10.58333 -7.830427,10.58333 -4.338057,0 -7.830427,-4.72017 -7.830427,-10.58333 V 49.136903 c 0,-5.863167 3.49237,-10.583333 7.830427,-10.583333 z"
         id="path997"
         inkscape:connector-curvature="0" />
      <path
         style="color:#000000;font-style:normal;font-variant:normal;font-weight:normal;font-stretch:normal;font-size:medium;line-height:normal;font-family:sans-serif;font-variant-ligatures:normal;font-variant-position:normal;font-variant-caps:normal;font-variant-numeric:normal;font-variant-alternates:normal;font-variant-east-asian:normal;font-feature-settings:normal;font-variation-settings:normal;text-indent:0;text-align:start;text-decoration:none;text-decoration-line:none;text-decoration-style:solid;text-decoration-color:#000000;letter-spacing:normal;word-spacing:normal;text-transform:none;writing-mode:lr-tb;direction:ltr;text-orientation:mixed;dominant-baseline:auto;baseline-shift:baseline;text-anchor:start;white-space:normal;shape-padding:0;shape-margin:0;inline-size:0;clip-rule:nonzero;display:inline;overflow:visible;visibility:visible;isolation:auto;mix-blend-mode:normal;color-interpolation:sRGB;color-interpolation-filters:linearRGB;solid-color:#000000;solid-opacity:1;vector-effect:none;fill:#7c75c1;fill-opacity:1;fill-rule:nonzero;stroke:none;stroke-width:2.91042;stroke-linecap:butt;stroke-linejoin:round;stroke-miterlimit:4;stroke-dasharray:none;stroke-dashoffset:0;stroke-opacity:1;color-rendering:auto;image-rendering:auto;shape-rendering:auto;text-rendering:auto;enable-background:accumulate;stop-color:#000000;stop-opacity:1"
         d="m 40.335938,37.097656 c -2.696825,0 -5.084183,1.484928 -6.710938,3.683594 -1.626755,2.198666 -2.574219,5.134955 -2.574219,8.355469 V 204.17773 c 0,3.22051 0.947464,6.15681 2.574219,8.35547 1.626755,2.19867 4.014112,3.68164 6.710938,3.68164 2.696825,0 5.086135,-1.48297 6.71289,-3.68164 1.626755,-2.19866 2.572266,-5.13496 2.572266,-8.35547 V 49.136719 c 0,-3.220514 -0.945511,-6.156803 -2.572266,-8.355469 -1.626755,-2.198666 -4.016066,-3.683594 -6.71289,-3.683594 z m 0,2.910156 c 1.641232,0 3.169102,0.876698 4.373046,2.503907 1.203944,1.627208 2.001954,3.982346 2.001954,6.625 V 204.17773 c 0,2.64265 -0.79801,4.99584 -2.001954,6.62305 -1.203944,1.62721 -2.731815,2.50391 -4.373046,2.50391 -1.641232,0 -3.16715,-0.8767 -4.371094,-2.50391 -1.203944,-1.62721 -2.003906,-3.9804 -2.003906,-6.62305 V 49.136719 c 0,-2.642654 0.799962,-4.997792 2.003906,-6.625 1.203944,-1.627209 2.729861,-2.503906 4.371094,-2.503907 z"
         id="path999"
         inkscape:connector-curvature="0" />
    </g>
    <path
       style="color:#000000;font-style:normal;font-variant:normal;font-weight:normal;font-stretch:normal;font-size:medium;line-height:normal;font-family:sans-serif;font-variant-ligatures:normal;font-variant-position:normal;font-variant-caps:normal;font-variant-numeric:normal;font-variant-alternates:normal;font-variant-east-asian:normal;font-feature-settings:normal;font-variation-settings:normal;text-indent:0;text-align:start;text-decoration:none;text-decoration-line:none;text-decoration-style:solid;text-decoration-color:#000000;letter-spacing:normal;word-spacing:normal;text-transform:none;writing-mode:lr-tb;direction:ltr;text-orientation:mixed;dominant-baseline:auto;baseline-shift:baseline;text-anchor:start;white-space:normal;shape-padding:0;shape-margin:0;inline-size:0;clip-rule:nonzero;display:inline;overflow:visible;visibility:visible;isolation:auto;mix-blend-mode:normal;color-interpolation:sRGB;color-interpolation-filters:linearRGB;solid-color:#000000;solid-opacity:1;vector-effect:none;fill:#7c75c1;fill-opacity:1;fill-rule:nonzero;stroke:none;stroke-width:2.91042;stroke-linecap:butt;stroke-linejoin:round;stroke-miterlimit:4;stroke-dasharray:none;stroke-dashoffset:0;stroke-opacity:1;color-rendering:auto;image-rendering:auto;shape-rendering:auto;text-rendering:auto;enable-background:accumulate;stop-color:#000000"
       d="m 179.1594,206.31882 c 6.64418,0 12.03906,-5.39488 12.03906,-12.03906 V 35.52975 c 0,-6.64418 -5.39488,-12.03906 -12.03906,-12.03906 -6.64419,0 -12.03711,5.39488 -12.03711,12.03906 v 158.75001 c 0,6.64418 5.39292,12.03906 12.03711,12.03906 z m 0,-2.91016 c -5.08215,0 -9.12696,-4.04675 -9.12696,-9.1289 V 35.52975 c 0,-5.08216 4.04481,-9.12891 9.12696,-9.12891 5.08215,0 9.1289,4.04675 9.1289,9.12891 v 158.75001 c 0,5.08215 -4.04675,9.1289 -9.1289,9.1289 z"
       id="path1003"
       inkscape:connector-curvature="0" />
    <g
       style="fill:#7c75c1;fill-opacity:1"
       transform="rotate(180,108.74962,120.60863)"
       id="g1005">
      <path
         style="color:#000000;font-style:normal;font-variant:normal;font-weight:normal;font-stretch:normal;font-size:medium;line-height:normal;font-family:sans-serif;font-variant-ligatures:normal;font-variant-position:normal;font-variant-caps:normal;font-variant-numeric:normal;font-variant-alternates:normal;font-variant-east-asian:normal;font-feature-settings:normal;font-variation-settings:normal;text-indent:0;text-align:start;text-decoration:none;text-decoration-line:none;text-decoration-style:solid;text-decoration-color:#000000;letter-spacing:normal;word-spacing:normal;text-transform:none;writing-mode:lr-tb;direction:ltr;text-orientation:mixed;dominant-baseline:auto;baseline-shift:baseline;text-anchor:start;white-space:normal;shape-padding:0;shape-margin:0;inline-size:0;clip-rule:nonzero;display:inline;overflow:visible;visibility:visible;isolation:auto;mix-blend-mode:normal;color-interpolation:sRGB;color-interpolation-filters:linearRGB;solid-color:#000000;solid-opacity:1;vector-effect:none;fill:#7c75c1;fill-opacity:1;fill-rule:nonzero;stroke:none;stroke-width:2.91042;stroke-linecap:butt;stroke-linejoin:round;stroke-miterlimit:4;stroke-dasharray:none;stroke-dashoffset:0;stroke-opacity:1;color-rendering:auto;image-rendering:auto;shape-rendering:auto;text-rendering:auto;enable-background:accumulate;stop-color:#000000;stop-opacity:1"
         d="m 40.336382,38.55357 c 4.338057,0 7.830427,4.720166 7.830427,10.583333 V 204.17683 c 0,5.86316 -3.49237,10.58333 -7.830427,10.58333 -4.338057,0 -7.830427,-4.72017 -7.830427,-10.58333 V 49.136903 c 0,-5.863167 3.49237,-10.583333 7.830427,-10.583333 z"
         id="path1007"
         inkscape:connector-curvature="0" />
      <path
         style="color:#000000;font-style:normal;font-variant:normal;font-weight:normal;font-stretch:normal;font-size:medium;line-height:normal;font-family:sans-serif;font-variant-ligatures:normal;font-variant-position:normal;font-variant-caps:normal;font-variant-numeric:normal;font-variant-alternates:normal;font-variant-east-asian:normal;font-feature-settings:normal;font-variation-settings:normal;text-indent:0;text-align:start;text-decoration:none;text-decoration-line:none;text-decoration-style:solid;text-decoration-color:#000000;letter-spacing:normal;word-spacing:normal;text-transform:none;writing-mode:lr-tb;direction:ltr;text-orientation:mixed;dominant-baseline:auto;baseline-shift:baseline;text-anchor:start;white-space:normal;shape-padding:0;shape-margin:0;inline-size:0;clip-rule:nonzero;display:inline;overflow:visible;visibility:visible;isolation:auto;mix-blend-mode:normal;color-interpolation:sRGB;color-interpolation-filters:linearRGB;solid-color:#000000;solid-opacity:1;vector-effect:none;fill:#7c75c1;fill-opacity:1;fill-rule:nonzero;stroke:none;stroke-width:2.91042;stroke-linecap:butt;stroke-linejoin:round;stroke-miterlimit:4;stroke-dasharray:none;stroke-dashoffset:0;stroke-opacity:1;color-rendering:auto;image-rendering:auto;shape-rendering:auto;text-rendering:auto;enable-background:accumulate;stop-color:#000000;stop-opacity:1"
         d="m 40.335938,37.097656 c -2.696825,0 -5.084183,1.484928 -6.710938,3.683594 -1.626755,2.198666 -2.574219,5.134955 -2.574219,8.355469 V 204.17773 c 0,3.22051 0.947464,6.15681 2.574219,8.35547 1.626755,2.19867 4.014112,3.68164 6.710938,3.68164 2.696825,0 5.086135,-1.48297 6.71289,-3.68164 1.626755,-2.19866 2.572266,-5.13496 2.572266,-8.35547 V 49.136719 c 0,-3.220514 -0.945511,-6.156803 -2.572266,-8.355469 -1.626755,-2.198666 -4.016066,-3.683594 -6.71289,-3.683594 z m 0,2.910156 c 1.641232,0 3.169102,0.876698 4.373046,2.503907 1.203944,1.627208 2.001954,3.982346 2.001954,6.625 V 204.17773 c 0,2.64265 -0.79801,4.99584 -2.001954,6.62305 -1.203944,1.62721 -2.731815,2.50391 -4.373046,2.50391 -1.641232,0 -3.16715,-0.8767 -4.371094,-2.50391 -1.203944,-1.62721 -2.003906,-3.9804 -2.003906,-6.62305 V 49.136719 c 0,-2.642654 0.799962,-4.997792 2.003906,-6.625 1.203944,-1.627209 2.729861,-2.503906 4.371094,-2.503907 z"
         id="path1009"
         inkscape:connector-curvature="0" />
    </g>
  </g>
</svg>
